<?xml version="1.0" encoding="UTF-8" standalone="no"?>
<score-partwise version="2.0">
    <work>
        <work-number/>
        <work-title/>
    </work>
    <movement-number/>
    <movement-title>And I am telling you</movement-title>
    <identification>
        <creator type="composer">Pop*</creator>
        <creator type="poet">Inspired by: Sadness and health</creator>
        <rights/>
        <source>Pop*</source>
    </identification>
    <defaults>
        <page-layout>
            <page-margins type="both">
                <left-margin>75</left-margin>
                <right-margin>50</right-margin>
                <top-margin>50.000</top-margin>
                <bottom-margin>50.000</bottom-margin>
            </page-margins>
        </page-layout>
    </defaults>
    <part-list>
        <score-part id="P1">
            <part-name>Melody</part-name>
            <part-abbreviation>Mel.</part-abbreviation>
        </score-part>
    </part-list>
    <part id="P1">
        <measure number="0">
            <print>
                <system-layout>
                    <system-margins>
                        <left-margin>0</left-margin>
                        <right-margin>0</right-margin>
                    </system-margins>
                    <top-system-distance>400</top-system-distance>
                </system-layout>
            </print>
            <attributes>
                <divisions>2</divisions>
                <key>
                    <fifths>0</fifths>
                    <mode>major</mode>
                </key>
                <time>
                    <beats>4</beats>
                    <beat-type>4</beat-type>
                </time>
                <clef>
                    <sign>G</sign>
                    <line>2</line>
                </clef>
            </attributes>
            <direction placement="above">
                <direction-type>
                    <words font-weight="bold" font-family="Times New Roman" font-size="12">(</words>
                </direction-type>
                <direction-type>
                    <metronome parentheses="no">
                        <beat-unit>quarter</beat-unit>
                        <per-minute>120</per-minute>
                    </metronome>
                </direction-type>
                <direction-type>
                    <words font-weight="bold" font-family="Times New Roman" font-size="12">)</words>
                </direction-type>
                <sound tempo="120"/>
            </direction>
            <harmony default-y="25" font-size="12" print-frame="no" relative-x="8">
                <root>
                    <root-step>A</root-step>
                </root>
                <kind>minor</kind>
            </harmony>
            <harmony default-y="25" font-size="12" print-frame="no" relative-x="8">
                <root>
                    <root-step>E</root-step>
                </root>
                <kind>minor</kind>
                <offset>4</offset>
            </harmony>
            <note>
                <pitch>
                    <step>E</step>
                    <octave>4</octave>
                </pitch>
                <duration>2</duration>
                <type>quarter</type>
                <stem>up</stem>
                <lyric name="verse" number="1">
                    <syllabic>single</syllabic>
                    <text>And</text>
                </lyric>
            </note>
            <note>
                <pitch>
                    <step>E</step>
                    <octave>4</octave>
                </pitch>
                <duration>1</duration>
                <type>eighth</type>
                <stem>up</stem>
                <lyric name="verse" number="1">
                    <syllabic>single</syllabic>
                    <text>I</text>
                </lyric>
            </note>
            <note>
                <pitch>
                    <step>D</step>
                    <octave>4</octave>
                </pitch>
                <duration>3</duration>
                <type>quarter</type>
                <dot/>
                <stem>up</stem>
                <lyric name="verse" number="1">
                    <syllabic>single</syllabic>
                    <text>am</text>
                </lyric>
            </note>
            <note>
                <rest/>
                <duration>2</duration>
                <type>quarter</type>
            </note>
        </measure>
        <measure number="1">
            <harmony default-y="25" font-size="12" print-frame="no" relative-x="8">
                <root>
                    <root-step>F</root-step>
                    <root-alter>1</root-alter>
                </root>
                <kind>minor-seventh</kind>
            </harmony>
            <harmony default-y="25" font-size="12" print-frame="no" relative-x="8">
                <root>
                    <root-step>B</root-step>
                </root>
                <kind>dominant</kind>
                <offset>6</offset>
            </harmony>
            <note>
                <pitch>
                    <step>E</step>
                    <octave>4</octave>
                </pitch>
                <duration>2</duration>
                <type>quarter</type>
                <stem>up</stem>
                <lyric name="verse" number="1">
                    <syllabic>begin</syllabic>
                    <text>tel</text>
                </lyric>
            </note>
            <note>
                <pitch>
                    <step>E</step>
                    <octave>4</octave>
                </pitch>
                <duration>4</duration>
                <type>half</type>
                <stem>up</stem>
                <lyric name="verse" number="1">
                    <syllabic>end</syllabic>
                    <text>ling</text>
                </lyric>
            </note>
            <note>
                <pitch>
                    <step>C</step>
                    <octave>4</octave>
                </pitch>
                <duration>2</duration>
                <type>quarter</type>
                <stem>up</stem>
                <lyric name="verse" number="1">
                    <syllabic>single</syllabic>
                    <text>you</text>
                </lyric>
            </note>
        </measure>
        <measure number="2">
            <harmony default-y="25" font-size="12" print-frame="no" relative-x="8">
                <root>
                    <root-step>E</root-step>
                </root>
                <kind>minor</kind>
            </harmony>
            <note>
                <pitch>
                    <step>E</step>
                    <octave>4</octave>
                </pitch>
                <duration>4</duration>
                <type>half</type>
                <stem>up</stem>
                <lyric name="verse" number="1">
                    <syllabic>single</syllabic>
                    <text>She</text>
                </lyric>
            </note>
            <note>
                <pitch>
                    <step>E</step>
                    <octave>4</octave>
                </pitch>
                <duration>4</duration>
                <tie type="start"/>
                <type>half</type>
                <stem>up</stem>
                <notations>
                    <tied type="start"/>
                </notations>
                <lyric name="verse" number="1">
                    <syllabic>single</syllabic>
                    <text>calls</text>
                </lyric>
            </note>
        </measure>
        <measure number="3">
            <print new-system="yes">
                <system-layout>
                    <system-margins>
                        <left-margin>0</left-margin>
                        <right-margin>0</right-margin>
                    </system-margins>
                    <system-distance>170</system-distance>
                </system-layout>
            </print>
            <harmony default-y="25" font-size="12" print-frame="no" relative-x="8">
                <root>
                    <root-step>B</root-step>
                </root>
                <kind>dominant</kind>
            </harmony>
            <note>
                <pitch>
                    <step>E</step>
                    <octave>4</octave>
                </pitch>
                <duration>6</duration>
                <tie type="stop"/>
                <type>half</type>
                <dot/>
                <stem>up</stem>
                <notations>
                    <tied type="stop"/>
                </notations>
            </note>
            <note>
                <pitch>
                    <step>D</step>
                    <octave>5</octave>
                </pitch>
                <duration>2</duration>
                <type>quarter</type>
                <stem>down</stem>
                <lyric name="verse" number="1">
                    <syllabic>single</syllabic>
                    <text>me</text>
                </lyric>
            </note>
        </measure>
        <measure number="4">
            <harmony default-y="25" font-size="12" print-frame="no" relative-x="8">
                <root>
                    <root-step>A</root-step>
                </root>
                <kind>minor</kind>
            </harmony>
            <note>
                <pitch>
                    <step>C</step>
                    <octave>5</octave>
                </pitch>
                <duration>2</duration>
                <type>quarter</type>
                <stem>up</stem>
                <lyric name="verse" number="1">
                    <syllabic>single</syllabic>
                    <text>home</text>
                </lyric>
            </note>
            <note>
                <pitch>
                    <step>B</step>
                    <octave>4</octave>
                </pitch>
                <duration>6</duration>
                <tie type="start"/>
                <type>half</type>
                <dot/>
                <stem>up</stem>
                <notations>
                    <tied type="start"/>
                </notations>
                <lyric name="verse" number="1">
                    <syllabic>begin</syllabic>
                    <text>Be</text>
                </lyric>
            </note>
        </measure>
        <measure number="5">
            <harmony default-y="25" font-size="12" print-frame="no" relative-x="8">
                <root>
                    <root-step>B</root-step>
                    <root-alter>-1</root-alter>
                </root>
                <kind>major</kind>
            </harmony>
            <note>
                <pitch>
                    <step>B</step>
                    <octave>4</octave>
                </pitch>
                <duration>4</duration>
                <tie type="stop"/>
                <type>half</type>
                <stem>up</stem>
                <notations>
                    <tied type="stop"/>
                </notations>
            </note>
            <note>
                <pitch>
                    <step>A</step>
                    <octave>4</octave>
                </pitch>
                <duration>2</duration>
                <type>quarter</type>
                <stem>up</stem>
                <lyric name="verse" number="1">
                    <syllabic>end</syllabic>
                    <text>fore</text>
                </lyric>
            </note>
            <note>
                <pitch>
                    <step>B</step>
                    <octave>4</octave>
                </pitch>
                <duration>2</duration>
                <type>quarter</type>
                <stem>up</stem>
                <lyric name="verse" number="1">
                    <syllabic>single</syllabic>
                    <text>you</text>
                </lyric>
            </note>
        </measure>
        <measure number="6">
            <print new-system="yes">
                <system-layout>
                    <system-margins>
                        <left-margin>0</left-margin>
                        <right-margin>0</right-margin>
                    </system-margins>
                    <system-distance>170</system-distance>
                </system-layout>
            </print>
            <harmony default-y="25" font-size="12" print-frame="no" relative-x="8">
                <root>
                    <root-step>C</root-step>
                </root>
                <kind>major</kind>
            </harmony>
            <note>
                <pitch>
                    <step>G</step>
                    <octave>4</octave>
                </pitch>
                <duration>8</duration>
                <type>whole</type>
                <stem>up</stem>
                <lyric name="verse" number="1">
                    <syllabic>single</syllabic>
                    <text>came</text>
                </lyric>
            </note>
        </measure>
        <measure number="7">
            <harmony default-y="25" font-size="12" print-frame="no" relative-x="8">
                <root>
                    <root-step>C</root-step>
                </root>
                <kind>major</kind>
            </harmony>
            <harmony default-y="25" font-size="12" print-frame="no" relative-x="8">
                <root>
                    <root-step>A</root-step>
                </root>
                <kind>minor</kind>
                <offset>4</offset>
            </harmony>
            <note>
                <pitch>
                    <step>E</step>
                    <octave>4</octave>
                </pitch>
                <duration>4</duration>
                <type>half</type>
                <stem>up</stem>
                <lyric name="verse" number="1">
                    <syllabic>single</syllabic>
                    <text>to</text>
                </lyric>
            </note>
            <note>
                <pitch>
                    <step>A</step>
                    <octave>4</octave>
                </pitch>
                <duration>4</duration>
                <type>half</type>
                <stem>up</stem>
                <lyric name="verse" number="1">
                    <syllabic>single</syllabic>
                    <text>be</text>
                </lyric>
            </note>
        </measure>
        <measure number="8">
            <harmony default-y="25" font-size="12" print-frame="no" relative-x="8">
                <root>
                    <root-step>A</root-step>
                </root>
                <kind>minor</kind>
            </harmony>
            <harmony default-y="25" font-size="12" print-frame="no" relative-x="8">
                <root>
                    <root-step>E</root-step>
                </root>
                <kind>minor</kind>
                <offset>4</offset>
            </harmony>
            <note>
                <pitch>
                    <step>E</step>
                    <octave>4</octave>
                </pitch>
                <duration>2</duration>
                <type>quarter</type>
                <stem>up</stem>
                <lyric name="verse" number="1">
                    <syllabic>single</syllabic>
                    <text>And</text>
                </lyric>
            </note>
            <note>
                <pitch>
                    <step>E</step>
                    <octave>4</octave>
                </pitch>
                <duration>1</duration>
                <type>eighth</type>
                <stem>up</stem>
                <lyric name="verse" number="1">
                    <syllabic>single</syllabic>
                    <text>I</text>
                </lyric>
            </note>
            <note>
                <pitch>
                    <step>D</step>
                    <octave>4</octave>
                </pitch>
                <duration>3</duration>
                <type>quarter</type>
                <dot/>
                <stem>up</stem>
                <lyric name="verse" number="1">
                    <syllabic>single</syllabic>
                    <text>am</text>
                </lyric>
            </note>
            <note>
                <rest/>
                <duration>2</duration>
                <type>quarter</type>
            </note>
        </measure>
        <measure number="9">
            <print new-system="yes">
                <system-layout>
                    <system-margins>
                        <left-margin>0</left-margin>
                        <right-margin>0</right-margin>
                    </system-margins>
                    <system-distance>170</system-distance>
                </system-layout>
            </print>
            <harmony default-y="25" font-size="12" print-frame="no" relative-x="8">
                <root>
                    <root-step>F</root-step>
                    <root-alter>1</root-alter>
                </root>
                <kind>minor-seventh</kind>
            </harmony>
            <harmony default-y="25" font-size="12" print-frame="no" relative-x="8">
                <root>
                    <root-step>B</root-step>
                </root>
                <kind>dominant</kind>
                <offset>6</offset>
            </harmony>
            <note>
                <pitch>
                    <step>E</step>
                    <octave>4</octave>
                </pitch>
                <duration>2</duration>
                <type>quarter</type>
                <stem>up</stem>
                <lyric name="verse" number="1">
                    <syllabic>begin</syllabic>
                    <text>tel</text>
                </lyric>
            </note>
            <note>
                <pitch>
                    <step>E</step>
                    <octave>4</octave>
                </pitch>
                <duration>4</duration>
                <type>half</type>
                <stem>up</stem>
                <lyric name="verse" number="1">
                    <syllabic>end</syllabic>
                    <text>ling</text>
                </lyric>
            </note>
            <note>
                <pitch>
                    <step>C</step>
                    <octave>4</octave>
                </pitch>
                <duration>2</duration>
                <type>quarter</type>
                <stem>up</stem>
                <lyric name="verse" number="1">
                    <syllabic>single</syllabic>
                    <text>you</text>
                </lyric>
            </note>
        </measure>
        <measure number="10">
            <harmony default-y="25" font-size="12" print-frame="no" relative-x="8">
                <root>
                    <root-step>E</root-step>
                </root>
                <kind>minor</kind>
            </harmony>
            <note>
                <pitch>
                    <step>E</step>
                    <octave>4</octave>
                </pitch>
                <duration>4</duration>
                <type>half</type>
                <stem>up</stem>
                <lyric name="verse" number="1">
                    <syllabic>single</syllabic>
                    <text>ah</text>
                </lyric>
            </note>
            <note>
                <pitch>
                    <step>E</step>
                    <octave>4</octave>
                </pitch>
                <duration>4</duration>
                <tie type="start"/>
                <type>half</type>
                <stem>up</stem>
                <notations>
                    <tied type="start"/>
                </notations>
                <lyric name="verse" number="1">
                    <syllabic>single</syllabic>
                    <text>A</text>
                </lyric>
            </note>
        </measure>
        <measure number="11">
            <harmony default-y="25" font-size="12" print-frame="no" relative-x="8">
                <root>
                    <root-step>B</root-step>
                </root>
                <kind>dominant</kind>
            </harmony>
            <note>
                <pitch>
                    <step>E</step>
                    <octave>4</octave>
                </pitch>
                <duration>6</duration>
                <tie type="stop"/>
                <type>half</type>
                <dot/>
                <stem>up</stem>
                <notations>
                    <tied type="stop"/>
                </notations>
            </note>
            <note>
                <pitch>
                    <step>D</step>
                    <octave>5</octave>
                </pitch>
                <duration>2</duration>
                <type>quarter</type>
                <stem>down</stem>
                <lyric name="verse" number="1">
                    <syllabic>single</syllabic>
                    <text>short</text>
                </lyric>
            </note>
        </measure>
        <measure number="12">
            <print new-system="yes">
                <system-layout>
                    <system-margins>
                        <left-margin>0</left-margin>
                        <right-margin>0</right-margin>
                    </system-margins>
                    <system-distance>170</system-distance>
                </system-layout>
            </print>
            <harmony default-y="25" font-size="12" print-frame="no" relative-x="8">
                <root>
                    <root-step>A</root-step>
                </root>
                <kind>minor</kind>
            </harmony>
            <note>
                <pitch>
                    <step>C</step>
                    <octave>5</octave>
                </pitch>
                <duration>2</duration>
                <type>quarter</type>
                <stem>up</stem>
                <lyric name="verse" number="1">
                    <syllabic>single</syllabic>
                    <text>stab</text>
                </lyric>
            </note>
            <note>
                <pitch>
                    <step>B</step>
                    <octave>4</octave>
                </pitch>
                <duration>6</duration>
                <tie type="start"/>
                <type>half</type>
                <dot/>
                <stem>up</stem>
                <notations>
                    <tied type="start"/>
                </notations>
                <lyric name="verse" number="1">
                    <syllabic>single</syllabic>
                    <text>of</text>
                </lyric>
            </note>
        </measure>
        <measure number="13">
            <harmony default-y="25" font-size="12" print-frame="no" relative-x="8">
                <root>
                    <root-step>B</root-step>
                    <root-alter>-1</root-alter>
                </root>
                <kind>major</kind>
            </harmony>
            <note>
                <pitch>
                    <step>B</step>
                    <octave>4</octave>
                </pitch>
                <duration>4</duration>
                <tie type="stop"/>
                <type>half</type>
                <stem>up</stem>
                <notations>
                    <tied type="stop"/>
                </notations>
            </note>
            <note>
                <pitch>
                    <step>A</step>
                    <octave>4</octave>
                </pitch>
                <duration>2</duration>
                <type>quarter</type>
                <stem>up</stem>
                <lyric name="verse" number="1">
                    <syllabic>begin</syllabic>
                    <text>heart</text>
                </lyric>
            </note>
            <note>
                <pitch>
                    <step>B</step>
                    <octave>4</octave>
                </pitch>
                <duration>2</duration>
                <type>quarter</type>
                <stem>up</stem>
                <lyric name="verse" number="1">
                    <syllabic>end</syllabic>
                    <text>break</text>
                </lyric>
            </note>
        </measure>
        <measure number="14">
            <harmony default-y="25" font-size="12" print-frame="no" relative-x="8">
                <root>
                    <root-step>C</root-step>
                </root>
                <kind>major</kind>
            </harmony>
            <note>
                <pitch>
                    <step>G</step>
                    <octave>4</octave>
                </pitch>
                <duration>8</duration>
                <type>whole</type>
                <stem>up</stem>
                <lyric name="verse" number="1">
                    <syllabic>single</syllabic>
                    <text>It</text>
                </lyric>
            </note>
        </measure>
        <measure number="15">
            <print new-system="yes">
                <system-layout>
                    <system-margins>
                        <left-margin>0</left-margin>
                        <right-margin>0</right-margin>
                    </system-margins>
                    <system-distance>170</system-distance>
                </system-layout>
            </print>
            <harmony default-y="25" font-size="12" print-frame="no" relative-x="8">
                <root>
                    <root-step>C</root-step>
                </root>
                <kind>major</kind>
            </harmony>
            <harmony default-y="25" font-size="12" print-frame="no" relative-x="8">
                <root>
                    <root-step>A</root-step>
                </root>
                <kind>minor</kind>
                <offset>4</offset>
            </harmony>
            <note>
                <pitch>
                    <step>E</step>
                    <octave>4</octave>
                </pitch>
                <duration>4</duration>
                <type>half</type>
                <stem>up</stem>
                <lyric name="verse" number="1">
                    <syllabic>single</syllabic>
                    <text>is</text>
                </lyric>
            </note>
            <note>
                <pitch>
                    <step>A</step>
                    <octave>4</octave>
                </pitch>
                <duration>4</duration>
                <type>half</type>
                <stem>up</stem>
                <lyric name="verse" number="1">
                    <syllabic>single</syllabic>
                    <text>sort</text>
                </lyric>
            </note>
        </measure>
        <measure number="16">
            <harmony default-y="25" font-size="12" print-frame="no" relative-x="8">
                <root>
                    <root-step>A</root-step>
                </root>
                <kind>minor</kind>
            </harmony>
            <note>
                <pitch>
                    <step>A</step>
                    <octave>4</octave>
                </pitch>
                <duration>8</duration>
                <type>whole</type>
                <stem>up</stem>
                <lyric name="verse" number="1">
                    <syllabic>single</syllabic>
                    <text>of</text>
                </lyric>
            </note>
        </measure>
        <measure number="17">
            <harmony default-y="25" font-size="12" print-frame="no" relative-x="8">
                <root>
                    <root-step>A</root-step>
                </root>
                <kind>minor</kind>
            </harmony>
            <note>
                <rest/>
                <duration>2</duration>
                <type>quarter</type>
            </note>
            <note>
                <rest/>
                <duration>2</duration>
                <type>quarter</type>
            </note>
            <note>
                <rest/>
                <duration>2</duration>
                <type>quarter</type>
            </note>
            <note>
                <pitch>
                    <step>C</step>
                    <octave>5</octave>
                </pitch>
                <duration>1</duration>
                <type>eighth</type>
                <stem>up</stem>
                <lyric name="verse" number="1">
                    <syllabic>begin</syllabic>
                    <text>Sicke</text>
                </lyric>
            </note>
            <note>
                <pitch>
                    <step>C</step>
                    <octave>5</octave>
                </pitch>
                <duration>1</duration>
                <type>eighth</type>
                <stem>up</stem>
                <lyric name="verse" number="1">
                    <syllabic>middle</syllabic>
                    <text>ning</text>
                </lyric>
            </note>
        </measure>
        <measure number="18">
            <print new-system="yes">
                <system-layout>
                    <system-margins>
                        <left-margin>0</left-margin>
                        <right-margin>0</right-margin>
                    </system-margins>
                    <system-distance>170</system-distance>
                </system-layout>
            </print>
            <harmony default-y="25" font-size="12" print-frame="no" relative-x="8">
                <root>
                    <root-step>A</root-step>
                </root>
                <kind>minor</kind>
            </harmony>
            <harmony default-y="25" font-size="12" print-frame="no" relative-x="8">
                <root>
                    <root-step>E</root-step>
                </root>
                <kind>minor-seventh</kind>
                <offset>4</offset>
            </harmony>
            <note>
                <pitch>
                    <step>C</step>
                    <octave>5</octave>
                </pitch>
                <duration>2</duration>
                <type>quarter</type>
                <stem>up</stem>
                <lyric name="verse" number="1">
                    <syllabic>end</syllabic>
                    <text></text>
                </lyric>
            </note>
            <note>
                <pitch>
                    <step>D</step>
                    <octave>5</octave>
                </pitch>
                <duration>4</duration>
                <type>half</type>
                <stem>down</stem>
                <lyric name="verse" number="1">
                    <syllabic>single</syllabic>
                    <text>when</text>
                </lyric>
            </note>
            <note>
                <pitch>
                    <step>D</step>
                    <octave>5</octave>
                </pitch>
                <duration>2</duration>
                <type>quarter</type>
                <stem>down</stem>
                <lyric name="verse" number="1">
                    <syllabic>single</syllabic>
                    <text>You</text>
                </lyric>
            </note>
        </measure>
        <measure number="19">
            <harmony default-y="25" font-size="12" print-frame="no" relative-x="8">
                <root>
                    <root-step>F</root-step>
                </root>
                <kind>suspended-second</kind>
            </harmony>
            <note>
                <pitch>
                    <step>G</step>
                    <octave>4</octave>
                </pitch>
                <duration>2</duration>
                <type>quarter</type>
                <stem>up</stem>
                <lyric name="verse" number="1">
                    <syllabic>single</syllabic>
                    <text>say</text>
                </lyric>
            </note>
            <note>
                <pitch>
                    <step>E</step>
                    <octave>4</octave>
                </pitch>
                <duration>1</duration>
                <type>eighth</type>
                <stem>up</stem>
                <lyric name="verse" number="1">
                    <syllabic>single</syllabic>
                    <text>it</text>
                </lyric>
            </note>
            <note>
                <pitch>
                    <step>E</step>
                    <octave>4</octave>
                </pitch>
                <duration>1</duration>
                <type>eighth</type>
                <stem>up</stem>
                <lyric name="verse" number="1">
                    <syllabic>begin</syllabic>
                    <text>a</text>
                </lyric>
            </note>
            <note>
                <pitch>
                    <step>E</step>
                    <octave>4</octave>
                </pitch>
                <duration>4</duration>
                <type>half</type>
                <stem>up</stem>
                <lyric name="verse" number="1">
                    <syllabic>end</syllabic>
                    <text>gain</text>
                </lyric>
            </note>
        </measure>
        <measure number="20">
            <harmony default-y="25" font-size="12" print-frame="no" relative-x="8">
                <root>
                    <root-step>D</root-step>
                </root>
                <kind>minor-seventh</kind>
            </harmony>
            <note>
                <pitch>
                    <step>A</step>
                    <octave>4</octave>
                </pitch>
                <duration>8</duration>
                <type>whole</type>
                <stem>up</stem>
                <lyric name="verse" number="1">
                    <syllabic>single</syllabic>
                    <text>to</text>
                </lyric>
            </note>
        </measure>
        <measure number="21">
            <print new-page="yes">
                <system-layout>
                    <system-margins>
                        <left-margin>0</left-margin>
                        <right-margin>0</right-margin>
                    </system-margins>
                    <top-system-distance>100</top-system-distance>
                </system-layout>
            </print>
            <harmony default-y="25" font-size="12" print-frame="no" relative-x="8">
                <root>
                    <root-step>G</root-step>
                </root>
                <kind>suspended-fourth</kind>
            </harmony>
            <note>
                <rest/>
                <duration>2</duration>
                <type>quarter</type>
            </note>
            <note>
                <rest/>
                <duration>2</duration>
                <type>quarter</type>
            </note>
            <note>
                <rest/>
                <duration>2</duration>
                <type>quarter</type>
            </note>
            <note>
                <pitch>
                    <step>C</step>
                    <octave>5</octave>
                </pitch>
                <duration>1</duration>
                <type>eighth</type>
                <stem>up</stem>
                <lyric name="verse" number="1">
                    <syllabic>single</syllabic>
                    <text>be</text>
                </lyric>
            </note>
            <note>
                <pitch>
                    <step>C</step>
                    <octave>5</octave>
                </pitch>
                <duration>1</duration>
                <type>eighth</type>
                <stem>up</stem>
                <lyric name="verse" number="1">
                    <syllabic>begin</syllabic>
                    <text>re</text>
                </lyric>
            </note>
        </measure>
        <measure number="22">
            <harmony default-y="25" font-size="12" print-frame="no" relative-x="8">
                <root>
                    <root-step>A</root-step>
                </root>
                <kind>minor</kind>
            </harmony>
            <note>
                <pitch>
                    <step>A</step>
                    <octave>4</octave>
                </pitch>
                <duration>2</duration>
                <type>quarter</type>
                <stem>up</stem>
                <lyric name="verse" number="1">
                    <syllabic>end</syllabic>
                    <text>leased</text>
                </lyric>
            </note>
            <note>
                <pitch>
                    <step>C</step>
                    <octave>5</octave>
                </pitch>
                <duration>4</duration>
                <type>half</type>
                <stem>up</stem>
                <lyric name="verse" number="1">
                    <syllabic>single</syllabic>
                    <text>once</text>
                </lyric>
            </note>
            <note>
                <pitch>
                    <step>D</step>
                    <octave>5</octave>
                </pitch>
                <duration>2</duration>
                <type>quarter</type>
                <stem>down</stem>
                <lyric name="verse" number="1">
                    <syllabic>begin</syllabic>
                    <text>a</text>
                </lyric>
            </note>
        </measure>
        <measure number="23">
            <harmony default-y="25" font-size="12" print-frame="no" relative-x="8">
                <root>
                    <root-step>D</root-step>
                </root>
                <kind>minor-seventh</kind>
            </harmony>
            <harmony default-y="25" font-size="12" print-frame="no" relative-x="8">
                <root>
                    <root-step>G</root-step>
                </root>
                <kind>dominant</kind>
                <offset>4</offset>
            </harmony>
            <note>
                <pitch>
                    <step>C</step>
                    <octave>5</octave>
                </pitch>
                <duration>2</duration>
                <type>quarter</type>
                <stem>up</stem>
                <lyric name="verse" number="1">
                    <syllabic>end</syllabic>
                    <text>gain</text>
                </lyric>
            </note>
            <note>
                <rest/>
                <duration>2</duration>
                <type>quarter</type>
            </note>
            <note>
                <pitch>
                    <step>B</step>
                    <alter>-1</alter>
                    <octave>4</octave>
                </pitch>
                <duration>1</duration>
                <type>eighth</type>
                <accidental>flat</accidental>
                <stem>up</stem>
                <lyric name="verse" number="1">
                    <syllabic>single</syllabic>
                    <text>I</text>
                </lyric>
            </note>
            <note>
                <pitch>
                    <step>A</step>
                    <octave>4</octave>
                </pitch>
                <duration>1</duration>
                <type>eighth</type>
                <stem>up</stem>
                <lyric name="verse" number="1">
                    <syllabic>single</syllabic>
                    <text>am</text>
                </lyric>
            </note>
            <note>
                <pitch>
                    <step>A</step>
                    <octave>4</octave>
                </pitch>
                <duration>2</duration>
                <type>quarter</type>
                <stem>up</stem>
                <lyric name="verse" number="1">
                    <syllabic>single</syllabic>
                    <text>blue</text>
                </lyric>
            </note>
        </measure>
        <measure number="24">
            <print new-system="yes">
                <system-layout>
                    <system-margins>
                        <left-margin>0</left-margin>
                        <right-margin>0</right-margin>
                    </system-margins>
                    <system-distance>170</system-distance>
                </system-layout>
            </print>
            <harmony default-y="25" font-size="12" print-frame="no" relative-x="8">
                <root>
                    <root-step>A</root-step>
                </root>
                <kind>minor</kind>
            </harmony>
            <harmony default-y="25" font-size="12" print-frame="no" relative-x="8">
                <root>
                    <root-step>E</root-step>
                </root>
                <kind>minor</kind>
                <offset>4</offset>
            </harmony>
            <note>
                <pitch>
                    <step>E</step>
                    <octave>4</octave>
                </pitch>
                <duration>2</duration>
                <type>quarter</type>
                <stem>up</stem>
                <lyric name="verse" number="1">
                    <syllabic>single</syllabic>
                    <text>And</text>
                </lyric>
            </note>
            <note>
                <pitch>
                    <step>E</step>
                    <octave>4</octave>
                </pitch>
                <duration>1</duration>
                <type>eighth</type>
                <stem>up</stem>
                <lyric name="verse" number="1">
                    <syllabic>single</syllabic>
                    <text>I</text>
                </lyric>
            </note>
            <note>
                <pitch>
                    <step>D</step>
                    <octave>4</octave>
                </pitch>
                <duration>3</duration>
                <type>quarter</type>
                <dot/>
                <stem>up</stem>
                <lyric name="verse" number="1">
                    <syllabic>single</syllabic>
                    <text>am</text>
                </lyric>
            </note>
            <note>
                <rest/>
                <duration>2</duration>
                <type>quarter</type>
            </note>
        </measure>
        <measure number="25">
            <harmony default-y="25" font-size="12" print-frame="no" relative-x="8">
                <root>
                    <root-step>F</root-step>
                    <root-alter>1</root-alter>
                </root>
                <kind>minor-seventh</kind>
            </harmony>
            <harmony default-y="25" font-size="12" print-frame="no" relative-x="8">
                <root>
                    <root-step>B</root-step>
                </root>
                <kind>dominant</kind>
                <offset>6</offset>
            </harmony>
            <note>
                <pitch>
                    <step>E</step>
                    <octave>4</octave>
                </pitch>
                <duration>2</duration>
                <type>quarter</type>
                <stem>up</stem>
                <lyric name="verse" number="1">
                    <syllabic>begin</syllabic>
                    <text>tel</text>
                </lyric>
            </note>
            <note>
                <pitch>
                    <step>E</step>
                    <octave>4</octave>
                </pitch>
                <duration>4</duration>
                <type>half</type>
                <stem>up</stem>
                <lyric name="verse" number="1">
                    <syllabic>end</syllabic>
                    <text>ling</text>
                </lyric>
            </note>
            <note>
                <pitch>
                    <step>C</step>
                    <octave>4</octave>
                </pitch>
                <duration>2</duration>
                <type>quarter</type>
                <stem>up</stem>
                <lyric name="verse" number="1">
                    <syllabic>single</syllabic>
                    <text>you</text>
                </lyric>
            </note>
        </measure>
        <measure number="26">
            <harmony default-y="25" font-size="12" print-frame="no" relative-x="8">
                <root>
                    <root-step>E</root-step>
                </root>
                <kind>minor</kind>
            </harmony>
            <note>
                <pitch>
                    <step>E</step>
                    <octave>4</octave>
                </pitch>
                <duration>4</duration>
                <type>half</type>
                <stem>up</stem>
                <lyric name="verse" number="1">
                    <syllabic>begin</syllabic>
                    <text>dar</text>
                </lyric>
            </note>
            <note>
                <pitch>
                    <step>E</step>
                    <octave>4</octave>
                </pitch>
                <duration>4</duration>
                <tie type="start"/>
                <type>half</type>
                <stem>up</stem>
                <notations>
                    <tied type="start"/>
                </notations>
                <lyric name="verse" number="1">
                    <syllabic>end</syllabic>
                    <text>ling</text>
                </lyric>
            </note>
        </measure>
        <measure number="27">
            <print new-system="yes">
                <system-layout>
                    <system-margins>
                        <left-margin>0</left-margin>
                        <right-margin>0</right-margin>
                    </system-margins>
                    <system-distance>170</system-distance>
                </system-layout>
            </print>
            <harmony default-y="25" font-size="12" print-frame="no" relative-x="8">
                <root>
                    <root-step>B</root-step>
                </root>
                <kind>dominant</kind>
            </harmony>
            <note>
                <pitch>
                    <step>E</step>
                    <octave>4</octave>
                </pitch>
                <duration>6</duration>
                <tie type="stop"/>
                <type>half</type>
                <dot/>
                <stem>up</stem>
                <notations>
                    <tied type="stop"/>
                </notations>
            </note>
            <note>
                <pitch>
                    <step>D</step>
                    <octave>5</octave>
                </pitch>
                <duration>2</duration>
                <type>quarter</type>
                <stem>down</stem>
                <lyric name="verse" number="1">
                    <syllabic>single</syllabic>
                    <text>It</text>
                </lyric>
            </note>
        </measure>
        <measure number="28">
            <harmony default-y="25" font-size="12" print-frame="no" relative-x="8">
                <root>
                    <root-step>A</root-step>
                </root>
                <kind>minor</kind>
            </harmony>
            <note>
                <pitch>
                    <step>C</step>
                    <octave>5</octave>
                </pitch>
                <duration>2</duration>
                <type>quarter</type>
                <stem>up</stem>
                <lyric name="verse" number="1">
                    <syllabic>single</syllabic>
                    <text>is</text>
                </lyric>
            </note>
            <note>
                <pitch>
                    <step>B</step>
                    <octave>4</octave>
                </pitch>
                <duration>6</duration>
                <tie type="start"/>
                <type>half</type>
                <dot/>
                <stem>up</stem>
                <notations>
                    <tied type="start"/>
                </notations>
                <lyric name="verse" number="1">
                    <syllabic>single</syllabic>
                    <text>a</text>
                </lyric>
            </note>
        </measure>
        <measure number="29">
            <harmony default-y="25" font-size="12" print-frame="no" relative-x="8">
                <root>
                    <root-step>B</root-step>
                    <root-alter>-1</root-alter>
                </root>
                <kind>major</kind>
            </harmony>
            <note>
                <pitch>
                    <step>B</step>
                    <octave>4</octave>
                </pitch>
                <duration>4</duration>
                <tie type="stop"/>
                <type>half</type>
                <stem>up</stem>
                <notations>
                    <tied type="stop"/>
                </notations>
            </note>
            <note>
                <pitch>
                    <step>A</step>
                    <octave>4</octave>
                </pitch>
                <duration>2</duration>
                <type>quarter</type>
                <stem>up</stem>
                <lyric name="verse" number="1">
                    <syllabic>begin</syllabic>
                    <text>hear</text>
                </lyric>
            </note>
            <note>
                <pitch>
                    <step>B</step>
                    <octave>4</octave>
                </pitch>
                <duration>2</duration>
                <type>quarter</type>
                <stem>up</stem>
                <lyric name="verse" number="1">
                    <syllabic>end</syllabic>
                    <text>tache</text>
                </lyric>
            </note>
        </measure>
        <measure number="30">
            <print new-system="yes">
                <system-layout>
                    <system-margins>
                        <left-margin>0</left-margin>
                        <right-margin>0</right-margin>
                    </system-margins>
                    <system-distance>170</system-distance>
                </system-layout>
            </print>
            <harmony default-y="25" font-size="12" print-frame="no" relative-x="8">
                <root>
                    <root-step>C</root-step>
                </root>
                <kind>major</kind>
            </harmony>
            <note>
                <pitch>
                    <step>G</step>
                    <octave>4</octave>
                </pitch>
                <duration>8</duration>
                <type>whole</type>
                <stem>up</stem>
                <lyric name="verse" number="1">
                    <syllabic>begin</syllabic>
                    <text>ci</text>
                </lyric>
            </note>
        </measure>
        <measure number="31">
            <harmony default-y="25" font-size="12" print-frame="no" relative-x="8">
                <root>
                    <root-step>C</root-step>
                </root>
                <kind>major</kind>
            </harmony>
            <harmony default-y="25" font-size="12" print-frame="no" relative-x="8">
                <root>
                    <root-step>A</root-step>
                </root>
                <kind>minor</kind>
                <offset>4</offset>
            </harmony>
            <note>
                <pitch>
                    <step>E</step>
                    <octave>4</octave>
                </pitch>
                <duration>4</duration>
                <type>half</type>
                <stem>up</stem>
                <lyric name="verse" number="1">
                    <syllabic>end</syllabic>
                    <text>ty</text>
                </lyric>
            </note>
            <note>
                <pitch>
                    <step>A</step>
                    <octave>4</octave>
                </pitch>
                <duration>4</duration>
                <type>half</type>
                <stem>up</stem>
                <lyric name="verse" number="1">
                    <syllabic>single</syllabic>
                    <text>hit</text>
                </lyric>
            </note>
<barline location="right">
                <bar-style>light-heavy</bar-style>
            </barline>
        </measure>
    </part>
</score-partwise>