<?xml version="1.0" encoding="UTF-8" standalone="no"?>
<score-partwise version="2.0">
    <work>
        <work-number/>
        <work-title/>
    </work>
    <movement-number/>
    <movement-title>This is</movement-title>
    <identification>
        <creator type="composer">Pop*</creator>
        <creator type="poet">Inspired by: Optimism and affection</creator>
        <rights/>
        <source>Pop*</source>
    </identification>
    <defaults>
        <page-layout>
            <page-margins type="both">
                <left-margin>75</left-margin>
                <right-margin>50</right-margin>
                <top-margin>50.000</top-margin>
                <bottom-margin>50.000</bottom-margin>
            </page-margins>
        </page-layout>
    </defaults>
    <part-list>
        <score-part id="P1">
            <part-name>Melody</part-name>
            <part-abbreviation>Mel.</part-abbreviation>
        </score-part>
    </part-list>
    <part id="P1">
        <measure number="0">
            <print>
                <system-layout>
                    <system-margins>
                        <left-margin>0</left-margin>
                        <right-margin>0</right-margin>
                    </system-margins>
                    <top-system-distance>400</top-system-distance>
                </system-layout>
            </print>
            <attributes>
                <divisions>2</divisions>
                <key>
                    <fifths>0</fifths>
                    <mode>major</mode>
                </key>
                <time>
                    <beats>4</beats>
                    <beat-type>4</beat-type>
                </time>
                <clef>
                    <sign>G</sign>
                    <line>2</line>
                </clef>
            </attributes>
            <direction placement="above">
                <direction-type>
                    <words font-weight="bold" font-family="Times New Roman" font-size="12">(</words>
                </direction-type>
                <direction-type>
                    <metronome parentheses="no">
                        <beat-unit>quarter</beat-unit>
                        <per-minute>120</per-minute>
                    </metronome>
                </direction-type>
                <direction-type>
                    <words font-weight="bold" font-family="Times New Roman" font-size="12">)</words>
                </direction-type>
                <sound tempo="120"/>
            </direction>
            <harmony default-y="25" font-size="12" print-frame="no" relative-x="8">
                <root>
                    <root-step>C</root-step>
                </root>
                <kind>major</kind>
            </harmony>
            <note>
                <rest/>
                <duration>2</duration>
                <type>quarter</type>
            </note>
            <note>
                <pitch>
                    <step>G</step>
                    <octave>4</octave>
                </pitch>
                <duration>2</duration>
                <type>quarter</type>
                <stem>up</stem>
                <lyric name="verse" number="1">
                    <syllabic>single</syllabic>
                    <text>This</text>
                </lyric>
            </note>
            <note>
                <pitch>
                    <step>G</step>
                    <octave>4</octave>
                </pitch>
                <duration>4</duration>
                <type>half</type>
                <stem>up</stem>
                <lyric name="verse" number="1">
                    <syllabic>single</syllabic>
                    <text>is</text>
                </lyric>
            </note>
        </measure>
        <measure number="1">
            <harmony default-y="25" font-size="12" print-frame="no" relative-x="8">
                <root>
                    <root-step>A</root-step>
                </root>
                <kind>minor</kind>
            </harmony>
            <harmony default-y="25" font-size="12" print-frame="no" relative-x="8">
                <root>
                    <root-step>D</root-step>
                </root>
                <kind>dominant</kind>
                <offset>4</offset>
            </harmony>
            <note>
                <rest/>
                <duration>8</duration>
                <type>whole</type>
            </note>
        </measure>
        <measure number="2">
            <harmony default-y="25" font-size="12" print-frame="no" relative-x="8">
                <root>
                    <root-step>D</root-step>
                </root>
                <kind>dominant</kind>
            </harmony>
            <harmony default-y="25" font-size="12" print-frame="no" relative-x="8">
                <root>
                    <root-step>G</root-step>
                </root>
                <kind>suspended-fourth</kind>
                <degree>
                    <degree-value>9</degree-value>
                    <degree-type>ADD</degree-type>
                </degree>
                <offset>5</offset>
            </harmony>
            <note>
                <rest/>
                <duration>8</duration>
                <type>whole</type>
            </note>
        </measure>
        <measure number="3">
            <print new-system="yes">
                <system-layout>
                    <system-margins>
                        <left-margin>0</left-margin>
                        <right-margin>0</right-margin>
                    </system-margins>
                    <system-distance>170</system-distance>
                </system-layout>
            </print>
            <harmony default-y="25" font-size="12" print-frame="no" relative-x="8">
                <root>
                    <root-step>C</root-step>
                </root>
                <kind>major</kind>
            </harmony>
            <note>
                <rest/>
                <duration>1</duration>
                <type>eighth</type>
            </note>
            <note>
                <pitch>
                    <step>C</step>
                    <octave>4</octave>
                </pitch>
                <duration>1</duration>
                <type>eighth</type>
                <stem>up</stem>
                <lyric name="verse" number="1">
                    <syllabic>single</syllabic>
                    <text>the</text>
                </lyric>
            </note>
            <note>
                <pitch>
                    <step>E</step>
                    <octave>4</octave>
                </pitch>
                <duration>1</duration>
                <type>eighth</type>
                <stem>up</stem>
                <lyric name="verse" number="1">
                    <syllabic>single</syllabic>
                    <text>way</text>
                </lyric>
            </note>
            <note>
                <pitch>
                    <step>E</step>
                    <octave>4</octave>
                </pitch>
                <duration>1</duration>
                <type>eighth</type>
                <stem>up</stem>
                <lyric name="verse" number="1">
                    <syllabic>single</syllabic>
                    <text>the</text>
                </lyric>
            </note>
            <note>
                <pitch>
                    <step>E</step>
                    <octave>4</octave>
                </pitch>
                <duration>2</duration>
                <type>quarter</type>
                <stem>up</stem>
                <lyric name="verse" number="1">
                    <syllabic>single</syllabic>
                    <text>world</text>
                </lyric>
            </note>
            <note>
                <pitch>
                    <step>E</step>
                    <octave>4</octave>
                </pitch>
                <duration>2</duration>
                <type>quarter</type>
                <stem>up</stem>
                <lyric name="verse" number="1">
                    <syllabic>single</syllabic>
                    <text>We</text>
                </lyric>
            </note>
        </measure>
        <measure number="4">
            <harmony default-y="25" font-size="12" print-frame="no" relative-x="8">
                <root>
                    <root-step>D</root-step>
                </root>
                <kind>minor-seventh</kind>
            </harmony>
            <note>
                <pitch>
                    <step>F</step>
                    <octave>4</octave>
                </pitch>
                <duration>8</duration>
                <type>whole</type>
                <stem>up</stem>
                <lyric name="verse" number="1">
                    <syllabic>single</syllabic>
                    <text>want</text>
                </lyric>
            </note>
        </measure>
        <measure number="5">
            <harmony default-y="25" font-size="12" print-frame="no" relative-x="8">
                <root>
                    <root-step>E</root-step>
                </root>
                <kind>minor-seventh</kind>
            </harmony>
            <harmony default-y="25" font-size="12" print-frame="no" relative-x="8">
                <root>
                    <root-step>A</root-step>
                </root>
                <kind>dominant</kind>
                <offset>4</offset>
            </harmony>
            <note>
                <pitch>
                    <step>D</step>
                    <octave>4</octave>
                </pitch>
                <duration>6</duration>
                <type>half</type>
                <dot/>
                <stem>up</stem>
                <lyric name="verse" number="1">
                    <syllabic>single</syllabic>
                    <text>love</text>
                </lyric>
            </note>
            <note>
                <pitch>
                    <step>G</step>
                    <octave>3</octave>
                </pitch>
                <duration>2</duration>
                <type>quarter</type>
                <stem>up</stem>
                <lyric name="verse" number="1">
                    <syllabic>single</syllabic>
                    <text>All</text>
                </lyric>
            </note>
        </measure>
        <measure number="6">
            <print new-system="yes">
                <system-layout>
                    <system-margins>
                        <left-margin>0</left-margin>
                        <right-margin>0</right-margin>
                    </system-margins>
                    <system-distance>170</system-distance>
                </system-layout>
            </print>
            <harmony default-y="25" font-size="12" print-frame="no" relative-x="8">
                <root>
                    <root-step>F</root-step>
                </root>
                <kind>major</kind>
            </harmony>
            <note>
                <pitch>
                    <step>A</step>
                    <octave>3</octave>
                </pitch>
                <duration>8</duration>
                <tie type="start"/>
                <type>whole</type>
                <stem>up</stem>
                <notations>
                    <tied type="start"/>
                </notations>
                <lyric name="verse" number="1">
                    <syllabic>single</syllabic>
                    <text>of</text>
                </lyric>
            </note>
        </measure>
        <measure number="7">
            <harmony default-y="25" font-size="12" print-frame="no" relative-x="8">
                <root>
                    <root-step>F</root-step>
                </root>
                <kind>major</kind>
            </harmony>
            <harmony default-y="25" font-size="12" print-frame="no" relative-x="8">
                <root>
                    <root-step>C</root-step>
                </root>
                <kind>major</kind>
                <offset>4</offset>
            </harmony>
            <note>
                <pitch>
                    <step>A</step>
                    <octave>3</octave>
                </pitch>
                <duration>4</duration>
                <tie type="stop"/>
                <type>half</type>
                <stem>up</stem>
                <notations>
                    <tied type="stop"/>
                </notations>
            </note>
            <note>
                <pitch>
                    <step>C</step>
                    <octave>5</octave>
                </pitch>
                <duration>4</duration>
                <type>half</type>
                <stem>up</stem>
                <lyric name="verse" number="1">
                    <syllabic>single</syllabic>
                    <text>me</text>
                </lyric>
            </note>
        </measure>
        <measure number="8">
            <harmony default-y="25" font-size="12" print-frame="no" relative-x="8">
                <root>
                    <root-step>C</root-step>
                </root>
                <kind>major</kind>
            </harmony>
            <note>
                <rest/>
                <duration>2</duration>
                <type>quarter</type>
            </note>
            <note>
                <pitch>
                    <step>G</step>
                    <octave>4</octave>
                </pitch>
                <duration>2</duration>
                <type>quarter</type>
                <stem>up</stem>
                <lyric name="verse" number="1">
                    <syllabic>single</syllabic>
                    <text>this</text>
                </lyric>
            </note>
            <note>
                <pitch>
                    <step>G</step>
                    <octave>4</octave>
                </pitch>
                <duration>4</duration>
                <type>half</type>
                <stem>up</stem>
                <lyric name="verse" number="1">
                    <syllabic>single</syllabic>
                    <text>is</text>
                </lyric>
            </note>
        </measure>
        <measure number="9">
            <print new-system="yes">
                <system-layout>
                    <system-margins>
                        <left-margin>0</left-margin>
                        <right-margin>0</right-margin>
                    </system-margins>
                    <system-distance>170</system-distance>
                </system-layout>
            </print>
            <harmony default-y="25" font-size="12" print-frame="no" relative-x="8">
                <root>
                    <root-step>A</root-step>
                </root>
                <kind>minor</kind>
            </harmony>
            <harmony default-y="25" font-size="12" print-frame="no" relative-x="8">
                <root>
                    <root-step>D</root-step>
                </root>
                <kind>dominant</kind>
                <offset>4</offset>
            </harmony>
            <note>
                <rest/>
                <duration>8</duration>
                <type>whole</type>
            </note>
        </measure>
        <measure number="10">
            <harmony default-y="25" font-size="12" print-frame="no" relative-x="8">
                <root>
                    <root-step>D</root-step>
                </root>
                <kind>dominant</kind>
            </harmony>
            <harmony default-y="25" font-size="12" print-frame="no" relative-x="8">
                <root>
                    <root-step>G</root-step>
                </root>
                <kind>suspended-fourth</kind>
                <degree>
                    <degree-value>9</degree-value>
                    <degree-type>ADD</degree-type>
                </degree>
                <offset>5</offset>
            </harmony>
            <note>
                <rest/>
                <duration>8</duration>
                <type>whole</type>
            </note>
        </measure>
        <measure number="11">
            <harmony default-y="25" font-size="12" print-frame="no" relative-x="8">
                <root>
                    <root-step>C</root-step>
                </root>
                <kind>major</kind>
            </harmony>
            <note>
                <rest/>
                <duration>1</duration>
                <type>eighth</type>
            </note>
            <note>
                <pitch>
                    <step>C</step>
                    <octave>4</octave>
                </pitch>
                <duration>1</duration>
                <type>eighth</type>
                <stem>up</stem>
                <lyric name="verse" number="1">
                    <syllabic>single</syllabic>
                    <text>the</text>
                </lyric>
            </note>
            <note>
                <pitch>
                    <step>E</step>
                    <octave>4</octave>
                </pitch>
                <duration>1</duration>
                <type>eighth</type>
                <stem>up</stem>
                <lyric name="verse" number="1">
                    <syllabic>single</syllabic>
                    <text>end</text>
                </lyric>
            </note>
            <note>
                <pitch>
                    <step>E</step>
                    <octave>4</octave>
                </pitch>
                <duration>1</duration>
                <type>eighth</type>
                <stem>up</stem>
                <lyric name="verse" number="1">
                    <syllabic>single</syllabic>
                    <text>The</text>
                </lyric>
            </note>
            <note>
                <pitch>
                    <step>E</step>
                    <octave>4</octave>
                </pitch>
                <duration>2</duration>
                <type>quarter</type>
                <stem>up</stem>
                <lyric name="verse" number="1">
                    <syllabic>single</syllabic>
                    <text>way</text>
                </lyric>
            </note>
            <note>
                <pitch>
                    <step>E</step>
                    <octave>4</octave>
                </pitch>
                <duration>2</duration>
                <type>quarter</type>
                <stem>up</stem>
                <lyric name="verse" number="1">
                    <syllabic>single</syllabic>
                    <text>you</text>
                </lyric>
            </note>
        </measure>
        <measure number="12">
            <print new-system="yes">
                <system-layout>
                    <system-margins>
                        <left-margin>0</left-margin>
                        <right-margin>0</right-margin>
                    </system-margins>
                    <system-distance>170</system-distance>
                </system-layout>
            </print>
            <harmony default-y="25" font-size="12" print-frame="no" relative-x="8">
                <root>
                    <root-step>D</root-step>
                </root>
                <kind>minor-seventh</kind>
            </harmony>
            <note>
                <pitch>
                    <step>F</step>
                    <octave>4</octave>
                </pitch>
                <duration>8</duration>
                <type>whole</type>
                <stem>up</stem>
                <lyric name="verse" number="1">
                    <syllabic>single</syllabic>
                    <text>walk</text>
                </lyric>
            </note>
        </measure>
        <measure number="13">
            <harmony default-y="25" font-size="12" print-frame="no" relative-x="8">
                <root>
                    <root-step>E</root-step>
                </root>
                <kind>minor-seventh</kind>
            </harmony>
            <harmony default-y="25" font-size="12" print-frame="no" relative-x="8">
                <root>
                    <root-step>A</root-step>
                </root>
                <kind>dominant</kind>
                <offset>4</offset>
            </harmony>
            <note>
                <pitch>
                    <step>D</step>
                    <octave>4</octave>
                </pitch>
                <duration>6</duration>
                <type>half</type>
                <dot/>
                <stem>up</stem>
                <lyric name="verse" number="1">
                    <syllabic>begin</syllabic>
                    <text>a</text>
                </lyric>
            </note>
            <note>
                <pitch>
                    <step>G</step>
                    <octave>3</octave>
                </pitch>
                <duration>2</duration>
                <type>quarter</type>
                <stem>up</stem>
                <lyric name="verse" number="1">
                    <syllabic>end</syllabic>
                    <text>way</text>
                </lyric>
            </note>
        </measure>
        <measure number="14">
            <harmony default-y="25" font-size="12" print-frame="no" relative-x="8">
                <root>
                    <root-step>F</root-step>
                </root>
                <kind>major</kind>
            </harmony>
            <note>
                <pitch>
                    <step>A</step>
                    <octave>3</octave>
                </pitch>
                <duration>8</duration>
                <tie type="start"/>
                <type>whole</type>
                <stem>up</stem>
                <notations>
                    <tied type="start"/>
                </notations>
                <lyric name="verse" number="1">
                    <syllabic>single</syllabic>
                    <text>I</text>
                </lyric>
            </note>
        </measure>
        <measure number="15">
            <print new-system="yes">
                <system-layout>
                    <system-margins>
                        <left-margin>0</left-margin>
                        <right-margin>0</right-margin>
                    </system-margins>
                    <system-distance>170</system-distance>
                </system-layout>
            </print>
            <harmony default-y="25" font-size="12" print-frame="no" relative-x="8">
                <root>
                    <root-step>F</root-step>
                </root>
                <kind>major</kind>
            </harmony>
            <harmony default-y="25" font-size="12" print-frame="no" relative-x="8">
                <root>
                    <root-step>C</root-step>
                </root>
                <kind>major</kind>
                <offset>4</offset>
            </harmony>
            <note>
                <pitch>
                    <step>A</step>
                    <octave>3</octave>
                </pitch>
                <duration>4</duration>
                <tie type="stop"/>
                <type>half</type>
                <stem>up</stem>
                <notations>
                    <tied type="stop"/>
                </notations>
            </note>
            <note>
                <pitch>
                    <step>C</step>
                    <octave>5</octave>
                </pitch>
                <duration>4</duration>
                <type>half</type>
                <stem>up</stem>
                <lyric name="verse" number="1">
                    <syllabic>single</syllabic>
                    <text>knew</text>
                </lyric>
            </note>
        </measure>
        <measure number="16">
            <harmony default-y="25" font-size="12" print-frame="no" relative-x="8">
                <root>
                    <root-step>C</root-step>
                </root>
                <kind>major</kind>
            </harmony>
            <note>
                <pitch>
                    <step>C</step>
                    <octave>5</octave>
                </pitch>
                <duration>8</duration>
                <type>whole</type>
                <stem>up</stem>
                <lyric name="verse" number="1">
                    <syllabic>single</syllabic>
                    <text>I</text>
                </lyric>
            </note>
        </measure>
        <measure number="17">
            <harmony default-y="25" font-size="12" print-frame="no" relative-x="8">
                <root>
                    <root-step>F</root-step>
                </root>
                <kind>major</kind>
                <bass>
                    <bass-step>C</bass-step>
                </bass>
            </harmony>
            <note>
                <rest/>
                <duration>2</duration>
                <type>quarter</type>
            </note>
            <note>
                <pitch>
                    <step>A</step>
                    <octave>4</octave>
                </pitch>
                <duration>1</duration>
                <type>eighth</type>
                <stem>up</stem>
                <lyric name="verse" number="1">
                    <syllabic>begin</syllabic>
                    <text>fi</text>
                </lyric>
            </note>
            <note>
                <pitch>
                    <step>E</step>
                    <octave>4</octave>
                </pitch>
                <duration>3</duration>
                <type>quarter</type>
                <dot/>
                <stem>up</stem>
                <lyric name="verse" number="1">
                    <syllabic>middle</syllabic>
                    <text>nal</text>
                </lyric>
            </note>
            <note>
                <pitch>
                    <step>E</step>
                    <octave>4</octave>
                </pitch>
                <duration>1</duration>
                <type>eighth</type>
                <stem>up</stem>
                <lyric name="verse" number="1">
                    <syllabic>end</syllabic>
                    <text>ly</text>
                </lyric>
            </note>
            <note>
                <pitch>
                    <step>F</step>
                    <octave>3</octave>
                </pitch>
                <duration>1</duration>
                <tie type="start"/>
                <type>eighth</type>
                <stem>up</stem>
                <notations>
                    <tied type="start"/>
                </notations>
                <lyric name="verse" number="1">
                    <syllabic>begin</syllabic>
                    <text>con</text>
                </lyric>
            </note>
        </measure>
        <measure number="18">
            <print new-system="yes">
                <system-layout>
                    <system-margins>
                        <left-margin>0</left-margin>
                        <right-margin>0</right-margin>
                    </system-margins>
                    <system-distance>170</system-distance>
                </system-layout>
            </print>
            <harmony default-y="25" font-size="12" print-frame="no" relative-x="8">
                <root>
                    <root-step>G</root-step>
                </root>
                <kind>dominant</kind>
                <bass>
                    <bass-step>C</bass-step>
                </bass>
            </harmony>
            <note>
                <pitch>
                    <step>F</step>
                    <octave>3</octave>
                </pitch>
                <duration>6</duration>
                <tie type="stop"/>
                <type>half</type>
                <dot/>
                <stem>up</stem>
                <notations>
                    <tied type="stop"/>
                </notations>
            </note>
            <note>
                <pitch>
                    <step>G</step>
                    <octave>3</octave>
                </pitch>
                <duration>1</duration>
                <type>eighth</type>
                <stem>up</stem>
                <lyric name="verse" number="1">
                    <syllabic>middle</syllabic>
                    <text>fron</text>
                </lyric>
            </note>
            <note>
                <pitch>
                    <step>G</step>
                    <octave>3</octave>
                </pitch>
                <duration>1</duration>
                <type>eighth</type>
                <stem>up</stem>
                <lyric name="verse" number="1">
                    <syllabic>end</syllabic>
                    <text>ting</text>
                </lyric>
            </note>
        </measure>
        <measure number="19">
            <harmony default-y="25" font-size="12" print-frame="no" relative-x="8">
                <root>
                    <root-step>C</root-step>
                </root>
                <kind>major</kind>
            </harmony>
            <note>
                <pitch>
                    <step>G</step>
                    <octave>3</octave>
                </pitch>
                <duration>2</duration>
                <type>quarter</type>
                <stem>up</stem>
                <lyric name="verse" number="1">
                    <syllabic>begin</syllabic>
                    <text>Strict</text>
                </lyric>
            </note>
            <note>
                <pitch>
                    <step>C</step>
                    <octave>4</octave>
                </pitch>
                <duration>2</duration>
                <type>quarter</type>
                <stem>up</stem>
                <lyric name="verse" number="1">
                    <syllabic>end</syllabic>
                    <text>ly</text>
                </lyric>
            </note>
            <note>
                <pitch>
                    <step>G</step>
                    <octave>4</octave>
                </pitch>
                <duration>4</duration>
                <type>half</type>
                <stem>up</stem>
                <lyric name="verse" number="1">
                    <syllabic>single</syllabic>
                    <text>on</text>
                </lyric>
            </note>
        </measure>
        <measure number="20">
            <harmony default-y="25" font-size="12" print-frame="no" relative-x="8">
                <root>
                    <root-step>A</root-step>
                </root>
                <kind>minor</kind>
            </harmony>
            <note>
                <pitch>
                    <step>C</step>
                    <octave>5</octave>
                </pitch>
                <duration>8</duration>
                <type>whole</type>
                <stem>up</stem>
                <lyric name="verse" number="1">
                    <syllabic>single</syllabic>
                    <text>a</text>
                </lyric>
            </note>
        </measure>
        <measure number="21">
            <print new-page="yes">
                <system-layout>
                    <system-margins>
                        <left-margin>0</left-margin>
                        <right-margin>0</right-margin>
                    </system-margins>
                    <top-system-distance>100</top-system-distance>
                </system-layout>
            </print>
            <harmony default-y="25" font-size="12" print-frame="no" relative-x="8">
                <root>
                    <root-step>A</root-step>
                </root>
                <kind>minor</kind>
            </harmony>
            <harmony default-y="25" font-size="12" print-frame="no" relative-x="8">
                <root>
                    <root-step>F</root-step>
                </root>
                <kind>major</kind>
                <offset>2</offset>
            </harmony>
            <note>
                <rest/>
                <duration>2</duration>
                <type>quarter</type>
            </note>
            <note>
                <pitch>
                    <step>A</step>
                    <octave>4</octave>
                </pitch>
                <duration>1</duration>
                <type>eighth</type>
                <stem>up</stem>
                <lyric name="verse" number="1">
                    <syllabic>begin</syllabic>
                    <text>beau</text>
                </lyric>
            </note>
            <note>
                <pitch>
                    <step>E</step>
                    <octave>4</octave>
                </pitch>
                <duration>3</duration>
                <type>quarter</type>
                <dot/>
                <stem>up</stem>
                <lyric name="verse" number="1">
                    <syllabic>middle</syllabic>
                    <text>ti</text>
                </lyric>
            </note>
            <note>
                <pitch>
                    <step>E</step>
                    <octave>4</octave>
                </pitch>
                <duration>1</duration>
                <type>eighth</type>
                <stem>up</stem>
                <lyric name="verse" number="1">
                    <syllabic>end</syllabic>
                    <text>ful</text>
                </lyric>
            </note>
            <note>
                <pitch>
                    <step>D</step>
                    <octave>4</octave>
                </pitch>
                <duration>1</duration>
                <tie type="start"/>
                <type>eighth</type>
                <stem>up</stem>
                <notations>
                    <tied type="start"/>
                </notations>
                <lyric name="verse" number="1">
                    <syllabic>single</syllabic>
                    <text>the</text>
                </lyric>
            </note>
        </measure>
        <measure number="22">
            <harmony default-y="25" font-size="12" print-frame="no" relative-x="8">
                <root>
                    <root-step>G</root-step>
                </root>
                <kind>major</kind>
            </harmony>
            <note>
                <pitch>
                    <step>D</step>
                    <octave>4</octave>
                </pitch>
                <duration>6</duration>
                <tie type="stop"/>
                <type>half</type>
                <dot/>
                <stem>up</stem>
                <notations>
                    <tied type="stop"/>
                </notations>
            </note>
            <note>
                <pitch>
                    <step>D</step>
                    <octave>4</octave>
                </pitch>
                <duration>1</duration>
                <type>eighth</type>
                <stem>up</stem>
                <lyric name="verse" number="1">
                    <syllabic>single</syllabic>
                    <text>way</text>
                </lyric>
            </note>
            <note>
                <pitch>
                    <step>C</step>
                    <octave>4</octave>
                </pitch>
                <duration>1</duration>
                <type>eighth</type>
                <stem>up</stem>
                <lyric name="verse" number="1">
                    <syllabic>single</syllabic>
                    <text>the</text>
                </lyric>
            </note>
        </measure>
        <measure number="23">
            <harmony default-y="25" font-size="12" print-frame="no" relative-x="8">
                <root>
                    <root-step>F</root-step>
                </root>
                <kind>major</kind>
            </harmony>
            <note>
                <pitch>
                    <step>C</step>
                    <octave>4</octave>
                </pitch>
                <duration>2</duration>
                <type>quarter</type>
                <stem>up</stem>
                <lyric name="verse" number="1">
                    <syllabic>single</syllabic>
                    <text>love</text>
                </lyric>
            </note>
            <note>
                <pitch>
                    <step>C</step>
                    <octave>4</octave>
                </pitch>
                <duration>1</duration>
                <type>eighth</type>
                <stem>up</stem>
                <lyric name="verse" number="1">
                    <syllabic>single</syllabic>
                    <text>You</text>
                </lyric>
            </note>
            <note>
                <pitch>
                    <step>D</step>
                    <octave>4</octave>
                </pitch>
                <duration>1</duration>
                <type>eighth</type>
                <stem>up</stem>
                <lyric name="verse" number="1">
                    <syllabic>begin</syllabic>
                    <text>Un</text>
                </lyric>
            </note>
            <note>
                <pitch>
                    <step>D</step>
                    <octave>4</octave>
                </pitch>
                <duration>1</duration>
                <type>eighth</type>
                <stem>up</stem>
                <lyric name="verse" number="1">
                    <syllabic>end</syllabic>
                    <text>til</text>
                </lyric>
            </note>
            <note>
                <pitch>
                    <step>E</step>
                    <octave>4</octave>
                </pitch>
                <duration>1</duration>
                <type>eighth</type>
                <stem>up</stem>
                <lyric name="verse" number="1">
                    <syllabic>single</syllabic>
                    <text>the</text>
                </lyric>
            </note>
            <note>
                <pitch>
                    <step>E</step>
                    <octave>4</octave>
                </pitch>
                <duration>1</duration>
                <type>eighth</type>
                <stem>up</stem>
                <lyric name="verse" number="1">
                    <syllabic>begin</syllabic>
                    <text>mor</text>
                </lyric>
            </note>
            <note>
                <pitch>
                    <step>G</step>
                    <octave>4</octave>
                </pitch>
                <duration>1</duration>
                <type>eighth</type>
                <stem>up</stem>
                <lyric name="verse" number="1">
                    <syllabic>end</syllabic>
                    <text>ning</text>
                </lyric>
            </note>
        </measure>
        <measure number="24">
            <print new-system="yes">
                <system-layout>
                    <system-margins>
                        <left-margin>0</left-margin>
                        <right-margin>0</right-margin>
                    </system-margins>
                    <system-distance>170</system-distance>
                </system-layout>
            </print>
            <harmony default-y="25" font-size="12" print-frame="no" relative-x="8">
                <root>
                    <root-step>C</root-step>
                </root>
                <kind>major</kind>
            </harmony>
            <note>
                <rest/>
                <duration>2</duration>
                <type>quarter</type>
            </note>
            <note>
                <pitch>
                    <step>G</step>
                    <octave>4</octave>
                </pitch>
                <duration>2</duration>
                <type>quarter</type>
                <stem>up</stem>
                <lyric name="verse" number="1">
                    <syllabic>single</syllabic>
                    <text>This</text>
                </lyric>
            </note>
            <note>
                <pitch>
                    <step>G</step>
                    <octave>4</octave>
                </pitch>
                <duration>4</duration>
                <type>half</type>
                <stem>up</stem>
                <lyric name="verse" number="1">
                    <syllabic>single</syllabic>
                    <text>is</text>
                </lyric>
            </note>
        </measure>
        <measure number="25">
            <harmony default-y="25" font-size="12" print-frame="no" relative-x="8">
                <root>
                    <root-step>A</root-step>
                </root>
                <kind>minor</kind>
            </harmony>
            <harmony default-y="25" font-size="12" print-frame="no" relative-x="8">
                <root>
                    <root-step>D</root-step>
                </root>
                <kind>dominant</kind>
                <offset>4</offset>
            </harmony>
            <note>
                <rest/>
                <duration>8</duration>
                <type>whole</type>
            </note>
        </measure>
        <measure number="26">
            <harmony default-y="25" font-size="12" print-frame="no" relative-x="8">
                <root>
                    <root-step>D</root-step>
                </root>
                <kind>dominant</kind>
            </harmony>
            <harmony default-y="25" font-size="12" print-frame="no" relative-x="8">
                <root>
                    <root-step>G</root-step>
                </root>
                <kind>suspended-fourth</kind>
                <degree>
                    <degree-value>9</degree-value>
                    <degree-type>ADD</degree-type>
                </degree>
                <offset>5</offset>
            </harmony>
            <note>
                <rest/>
                <duration>8</duration>
                <type>whole</type>
            </note>
        </measure>
        <measure number="27">
            <print new-system="yes">
                <system-layout>
                    <system-margins>
                        <left-margin>0</left-margin>
                        <right-margin>0</right-margin>
                    </system-margins>
                    <system-distance>170</system-distance>
                </system-layout>
            </print>
            <harmony default-y="25" font-size="12" print-frame="no" relative-x="8">
                <root>
                    <root-step>C</root-step>
                </root>
                <kind>major</kind>
            </harmony>
            <note>
                <rest/>
                <duration>1</duration>
                <type>eighth</type>
            </note>
            <note>
                <pitch>
                    <step>C</step>
                    <octave>4</octave>
                </pitch>
                <duration>1</duration>
                <type>eighth</type>
                <stem>up</stem>
                <lyric name="verse" number="1">
                    <syllabic>single</syllabic>
                    <text>the</text>
                </lyric>
            </note>
            <note>
                <pitch>
                    <step>E</step>
                    <octave>4</octave>
                </pitch>
                <duration>1</duration>
                <type>eighth</type>
                <stem>up</stem>
                <lyric name="verse" number="1">
                    <syllabic>single</syllabic>
                    <text>one</text>
                </lyric>
            </note>
            <note>
                <pitch>
                    <step>E</step>
                    <octave>4</octave>
                </pitch>
                <duration>1</duration>
                <type>eighth</type>
                <stem>up</stem>
                <lyric name="verse" number="1">
                    <syllabic>single</syllabic>
                    <text>and</text>
                </lyric>
            </note>
            <note>
                <pitch>
                    <step>E</step>
                    <octave>4</octave>
                </pitch>
                <duration>2</duration>
                <type>quarter</type>
                <stem>up</stem>
                <lyric name="verse" number="1">
                    <syllabic>single</syllabic>
                    <text>great</text>
                </lyric>
            </note>
            <note>
                <pitch>
                    <step>E</step>
                    <octave>4</octave>
                </pitch>
                <duration>2</duration>
                <type>quarter</type>
                <stem>up</stem>
                <lyric name="verse" number="1">
                    <syllabic>single</syllabic>
                    <text>will</text>
                </lyric>
            </note>
        </measure>
        <measure number="28">
            <harmony default-y="25" font-size="12" print-frame="no" relative-x="8">
                <root>
                    <root-step>D</root-step>
                </root>
                <kind>minor-seventh</kind>
            </harmony>
            <note>
                <pitch>
                    <step>F</step>
                    <octave>4</octave>
                </pitch>
                <duration>8</duration>
                <type>whole</type>
                <stem>up</stem>
                <lyric name="verse" number="1">
                    <syllabic>single</syllabic>
                    <text>be</text>
                </lyric>
            </note>
        </measure>
        <measure number="29">
            <harmony default-y="25" font-size="12" print-frame="no" relative-x="8">
                <root>
                    <root-step>E</root-step>
                </root>
                <kind>minor-seventh</kind>
            </harmony>
            <harmony default-y="25" font-size="12" print-frame="no" relative-x="8">
                <root>
                    <root-step>A</root-step>
                </root>
                <kind>dominant</kind>
                <offset>4</offset>
            </harmony>
            <note>
                <pitch>
                    <step>D</step>
                    <octave>4</octave>
                </pitch>
                <duration>6</duration>
                <type>half</type>
                <dot/>
                <stem>up</stem>
                <lyric name="verse" number="1">
                    <syllabic>single</syllabic>
                    <text>As</text>
                </lyric>
            </note>
            <note>
                <pitch>
                    <step>G</step>
                    <octave>3</octave>
                </pitch>
                <duration>2</duration>
                <type>quarter</type>
                <stem>up</stem>
                <lyric name="verse" number="1">
                    <syllabic>single</syllabic>
                    <text>in</text>
                </lyric>
            </note>
        </measure>
        <measure number="30">
            <print new-system="yes">
                <system-layout>
                    <system-margins>
                        <left-margin>0</left-margin>
                        <right-margin>0</right-margin>
                    </system-margins>
                    <system-distance>170</system-distance>
                </system-layout>
            </print>
            <harmony default-y="25" font-size="12" print-frame="no" relative-x="8">
                <root>
                    <root-step>F</root-step>
                </root>
                <kind>major</kind>
            </harmony>
            <note>
                <pitch>
                    <step>A</step>
                    <octave>3</octave>
                </pitch>
                <duration>8</duration>
                <tie type="start"/>
                <type>whole</type>
                <stem>up</stem>
                <notations>
                    <tied type="start"/>
                </notations>
                <lyric name="verse" number="1">
                    <syllabic>single</syllabic>
                    <text>love</text>
                </lyric>
            </note>
        </measure>
        <measure number="31">
            <harmony default-y="25" font-size="12" print-frame="no" relative-x="8">
                <root>
                    <root-step>F</root-step>
                </root>
                <kind>major</kind>
            </harmony>
            <harmony default-y="25" font-size="12" print-frame="no" relative-x="8">
                <root>
                    <root-step>C</root-step>
                </root>
                <kind>major</kind>
                <offset>4</offset>
            </harmony>
            <note>
                <pitch>
                    <step>A</step>
                    <octave>3</octave>
                </pitch>
                <duration>4</duration>
                <tie type="stop"/>
                <type>half</type>
                <stem>up</stem>
                <notations>
                    <tied type="stop"/>
                </notations>
            </note>
            <note>
                <pitch>
                    <step>C</step>
                    <octave>5</octave>
                </pitch>
                <duration>4</duration>
                <type>half</type>
                <stem>up</stem>
                <lyric name="verse" number="1">
                    <syllabic>single</syllabic>
                    <text>'til</text>
                </lyric>
            </note>
<barline location="right">
                <bar-style>light-heavy</bar-style>
            </barline>
        </measure>
    </part>
</score-partwise>