<?xml version="1.0" encoding="UTF-8" standalone="no"?>
<score-partwise version="2.0">
    <work>
        <work-number/>
        <work-title/>
    </work>
    <movement-number/>
    <movement-title>This is how I</movement-title>
    <identification>
        <creator type="composer">Pop*</creator>
        <creator type="poet">Inspired by: Love and optimism</creator>
        <rights/>
        <source>Pop*</source>
    </identification>
    <defaults>
        <page-layout>
            <page-margins type="both">
                <left-margin>75</left-margin>
                <right-margin>50</right-margin>
                <top-margin>50.000</top-margin>
                <bottom-margin>50.000</bottom-margin>
            </page-margins>
        </page-layout>
    </defaults>
    <part-list>
        <score-part id="P1">
            <part-name>Melody</part-name>
            <part-abbreviation>Mel.</part-abbreviation>
        </score-part>
        <score-part id="P2">
            <part-name>Piano</part-name>
            <part-abbreviation>Piano</part-abbreviation>
        </score-part>
        <score-part id="P3">
            <part-name>Bass</part-name>
            <part-abbreviation>Bass</part-abbreviation>
        </score-part>
    </part-list>
    <part id="P1">
        <measure number="0">
            <print>
                <system-layout>
                    <system-margins>
                        <left-margin>0</left-margin>
                        <right-margin>0</right-margin>
                    </system-margins>
                    <top-system-distance>400</top-system-distance>
                </system-layout>
            </print>
            <attributes>
                <divisions>2</divisions>
                <key>
                    <fifths>0</fifths>
                    <mode>major</mode>
                </key>
                <time>
                    <beats>4</beats>
                    <beat-type>4</beat-type>
                </time>
                <clef>
                    <sign>G</sign>
                    <line>2</line>
                </clef>
            </attributes>
            <direction placement="above">
                <direction-type>
                    <words font-weight="bold" font-family="Times New Roman" font-size="12">(</words>
                </direction-type>
                <direction-type>
                    <metronome parentheses="no">
                        <beat-unit>quarter</beat-unit>
                        <per-minute>120</per-minute>
                    </metronome>
                </direction-type>
                <direction-type>
                    <words font-weight="bold" font-family="Times New Roman" font-size="12">)</words>
                </direction-type>
                <sound tempo="120"/>
            </direction>
            <harmony default-y="25" font-size="12" print-frame="no" relative-x="8">
                <root>
                    <root-step>C</root-step>
                </root>
                <kind>major</kind>
            </harmony>
            <note>
                <pitch>
                    <step>E</step>
                    <octave>4</octave>
                </pitch>
                <duration>8</duration>
                <type>whole</type>
                <stem>up</stem>
                <lyric name="verse" number="1">
                    <syllabic>single</syllabic>
                    <text>This</text>
                </lyric>
            </note>
        </measure>
        <measure number="1">
            <harmony default-y="25" font-size="12" print-frame="no" relative-x="8">
                <root>
                    <root-step>C</root-step>
                </root>
                <kind>major</kind>
            </harmony>
            <note>
                <pitch>
                    <step>E</step>
                    <octave>4</octave>
                </pitch>
                <duration>2</duration>
                <type>quarter</type>
                <stem>up</stem>
                <lyric name="verse" number="1">
                    <syllabic>single</syllabic>
                    <text>is</text>
                </lyric>
            </note>
            <note>
                <pitch>
                    <step>F</step>
                    <octave>4</octave>
                </pitch>
                <duration>2</duration>
                <type>quarter</type>
                <stem>up</stem>
                <lyric name="verse" number="1">
                    <syllabic>single</syllabic>
                    <text>how</text>
                </lyric>
            </note>
            <note>
                <pitch>
                    <step>F</step>
                    <octave>4</octave>
                </pitch>
                <duration>4</duration>
                <type>half</type>
                <stem>up</stem>
                <lyric name="verse" number="1">
                    <syllabic>single</syllabic>
                    <text>I</text>
                </lyric>
            </note>
        </measure>
        <measure number="2">
            <harmony default-y="25" font-size="12" print-frame="no" relative-x="8">
                <root>
                    <root-step>E</root-step>
                </root>
                <kind>minor-seventh</kind>
            </harmony>
            <note>
                <pitch>
                    <step>D</step>
                    <octave>4</octave>
                </pitch>
                <duration>8</duration>
                <type>whole</type>
                <stem>up</stem>
                <lyric name="verse" number="1">
                    <syllabic>single</syllabic>
                    <text>love</text>
                </lyric>
            </note>
        </measure>
        <measure number="3">
            <print new-system="yes">
                <system-layout>
                    <system-margins>
                        <left-margin>0</left-margin>
                        <right-margin>0</right-margin>
                    </system-margins>
                    <system-distance>200</system-distance>
                </system-layout>
            </print>
            <harmony default-y="25" font-size="12" print-frame="no" relative-x="8">
                <root>
                    <root-step>F</root-step>
                </root>
                <kind>major</kind>
            </harmony>
            <harmony default-y="25" font-size="12" print-frame="no" relative-x="8">
                <root>
                    <root-step>C</root-step>
                </root>
                <kind>major</kind>
                <offset>4</offset>
            </harmony>
            <note>
                <pitch>
                    <step>F</step>
                    <octave>4</octave>
                </pitch>
                <duration>2</duration>
                <type>quarter</type>
                <stem>up</stem>
                <lyric name="verse" number="1">
                    <syllabic>single</syllabic>
                    <text>the</text>
                </lyric>
            </note>
            <note>
                <pitch>
                    <step>F</step>
                    <octave>4</octave>
                </pitch>
                <duration>2</duration>
                <type>quarter</type>
                <stem>up</stem>
                <lyric name="verse" number="1">
                    <syllabic>single</syllabic>
                    <text>night</text>
                </lyric>
            </note>
            <note>
                <pitch>
                    <step>C</step>
                    <octave>4</octave>
                </pitch>
                <duration>4</duration>
                <type>half</type>
                <stem>up</stem>
                <lyric name="verse" number="1">
                    <syllabic>single</syllabic>
                    <text>sky</text>
                </lyric>
            </note>
        </measure>
        <measure number="4">
            <harmony default-y="25" font-size="12" print-frame="no" relative-x="8">
                <root>
                    <root-step>C</root-step>
                </root>
                <kind>major</kind>
            </harmony>
            <note>
                <pitch>
                    <step>C</step>
                    <octave>4</octave>
                </pitch>
                <duration>8</duration>
                <type>whole</type>
                <stem>up</stem>
                <lyric name="verse" number="1">
                    <syllabic>single</syllabic>
                    <text>do</text>
                </lyric>
            </note>
        </measure>
        <measure number="5">
            <harmony default-y="25" font-size="12" print-frame="no" relative-x="8">
                <root>
                    <root-step>C</root-step>
                </root>
                <kind>major</kind>
            </harmony>
            <harmony default-y="25" font-size="12" print-frame="no" relative-x="8">
                <root>
                    <root-step>G</root-step>
                </root>
                <kind>dominant</kind>
                <offset>6</offset>
            </harmony>
            <note>
                <pitch>
                    <step>E</step>
                    <octave>4</octave>
                </pitch>
                <duration>2</duration>
                <type>quarter</type>
                <stem>up</stem>
                <lyric name="verse" number="1">
                    <syllabic>single</syllabic>
                    <text>Your</text>
                </lyric>
            </note>
            <note>
                <pitch>
                    <step>D</step>
                    <octave>4</octave>
                </pitch>
                <duration>2</duration>
                <type>quarter</type>
                <stem>up</stem>
                <lyric name="verse" number="1">
                    <syllabic>single</syllabic>
                    <text>thing</text>
                </lyric>
            </note>
            <note>
                <pitch>
                    <step>D</step>
                    <octave>4</octave>
                </pitch>
                <duration>4</duration>
                <type>half</type>
                <stem>up</stem>
                <lyric name="verse" number="1">
                    <syllabic>single</syllabic>
                    <text>hey</text>
                </lyric>
            </note>
        </measure>
        <measure number="6">
            <print new-system="yes">
                <system-layout>
                    <system-margins>
                        <left-margin>0</left-margin>
                        <right-margin>0</right-margin>
                    </system-margins>
                    <system-distance>200</system-distance>
                </system-layout>
            </print>
            <harmony default-y="25" font-size="12" print-frame="no" relative-x="8">
                <root>
                    <root-step>C</root-step>
                </root>
                <kind>major</kind>
            </harmony>
            <note>
                <pitch>
                    <step>C</step>
                    <octave>4</octave>
                </pitch>
                <duration>8</duration>
                <type>whole</type>
                <stem>up</stem>
                <lyric name="verse" number="1">
                    <syllabic>single</syllabic>
                    <text>I</text>
                </lyric>
            </note>
        </measure>
        <measure number="7">
            <harmony default-y="25" font-size="12" print-frame="no" relative-x="8">
                <root>
                    <root-step>C</root-step>
                </root>
                <kind>major</kind>
            </harmony>
            <harmony default-y="25" font-size="12" print-frame="no" relative-x="8">
                <root>
                    <root-step>G</root-step>
                </root>
                <kind>dominant</kind>
                <offset>6</offset>
            </harmony>
            <note>
                <pitch>
                    <step>E</step>
                    <octave>4</octave>
                </pitch>
                <duration>2</duration>
                <type>quarter</type>
                <stem>up</stem>
                <lyric name="verse" number="1">
                    <syllabic>single</syllabic>
                    <text>was</text>
                </lyric>
            </note>
            <note>
                <pitch>
                    <step>D</step>
                    <octave>4</octave>
                </pitch>
                <duration>2</duration>
                <type>quarter</type>
                <stem>up</stem>
                <lyric name="verse" number="1">
                    <syllabic>single</syllabic>
                    <text>No</text>
                </lyric>
            </note>
            <note>
                <pitch>
                    <step>D</step>
                    <octave>4</octave>
                </pitch>
                <duration>4</duration>
                <type>half</type>
                <stem>up</stem>
                <lyric name="verse" number="1">
                    <syllabic>single</syllabic>
                    <text>way</text>
                </lyric>
            </note>
        </measure>
        <measure number="8">
            <harmony default-y="25" font-size="12" print-frame="no" relative-x="8">
                <root>
                    <root-step>C</root-step>
                </root>
                <kind>major</kind>
            </harmony>
            <note>
                <pitch>
                    <step>E</step>
                    <octave>4</octave>
                </pitch>
                <duration>8</duration>
                <type>whole</type>
                <stem>up</stem>
                <lyric name="verse" number="1">
                    <syllabic>single</syllabic>
                    <text>This</text>
                </lyric>
            </note>
        </measure>
        <measure number="9">
            <print new-page="yes">
                <system-layout>
                    <system-margins>
                        <left-margin>0</left-margin>
                        <right-margin>0</right-margin>
                    </system-margins>
                    <top-system-distance>100</top-system-distance>
                </system-layout>
            </print>
            <harmony default-y="25" font-size="12" print-frame="no" relative-x="8">
                <root>
                    <root-step>C</root-step>
                </root>
                <kind>major</kind>
            </harmony>
            <note>
                <pitch>
                    <step>E</step>
                    <octave>4</octave>
                </pitch>
                <duration>2</duration>
                <type>quarter</type>
                <stem>up</stem>
                <lyric name="verse" number="1">
                    <syllabic>single</syllabic>
                    <text>is</text>
                </lyric>
            </note>
            <note>
                <pitch>
                    <step>F</step>
                    <octave>4</octave>
                </pitch>
                <duration>2</duration>
                <type>quarter</type>
                <stem>up</stem>
                <lyric name="verse" number="1">
                    <syllabic>single</syllabic>
                    <text>how</text>
                </lyric>
            </note>
            <note>
                <pitch>
                    <step>F</step>
                    <octave>4</octave>
                </pitch>
                <duration>4</duration>
                <type>half</type>
                <stem>up</stem>
                <lyric name="verse" number="1">
                    <syllabic>single</syllabic>
                    <text>I</text>
                </lyric>
            </note>
        </measure>
        <measure number="10">
            <harmony default-y="25" font-size="12" print-frame="no" relative-x="8">
                <root>
                    <root-step>E</root-step>
                </root>
                <kind>minor-seventh</kind>
            </harmony>
            <note>
                <pitch>
                    <step>D</step>
                    <octave>4</octave>
                </pitch>
                <duration>8</duration>
                <type>whole</type>
                <stem>up</stem>
                <lyric name="verse" number="1">
                    <syllabic>single</syllabic>
                    <text>love</text>
                </lyric>
            </note>
        </measure>
        <measure number="11">
            <harmony default-y="25" font-size="12" print-frame="no" relative-x="8">
                <root>
                    <root-step>F</root-step>
                </root>
                <kind>major</kind>
            </harmony>
            <harmony default-y="25" font-size="12" print-frame="no" relative-x="8">
                <root>
                    <root-step>C</root-step>
                </root>
                <kind>major</kind>
                <offset>4</offset>
            </harmony>
            <note>
                <pitch>
                    <step>F</step>
                    <octave>4</octave>
                </pitch>
                <duration>2</duration>
                <type>quarter</type>
                <stem>up</stem>
                <lyric name="verse" number="1">
                    <syllabic>single</syllabic>
                    <text>the</text>
                </lyric>
            </note>
            <note>
                <pitch>
                    <step>F</step>
                    <octave>4</octave>
                </pitch>
                <duration>2</duration>
                <type>quarter</type>
                <stem>up</stem>
                <lyric name="verse" number="1">
                    <syllabic>single</syllabic>
                    <text>night</text>
                </lyric>
            </note>
            <note>
                <pitch>
                    <step>C</step>
                    <octave>4</octave>
                </pitch>
                <duration>4</duration>
                <type>half</type>
                <stem>up</stem>
                <lyric name="verse" number="1">
                    <syllabic>single</syllabic>
                    <text>sky</text>
                </lyric>
            </note>
<barline location="right">
                <bar-style>light-heavy</bar-style>
            </barline>
        </measure>
    </part>
    <part id="P2">
        <measure number="0">
            <attributes>
                <divisions>2</divisions>
                <key>
                    <fifths>0</fifths>
                    <mode>major</mode>
                </key>
                <time>
                    <beats>4</beats>
                    <beat-type>4</beat-type>
                </time>
                <clef>
                    <sign>G</sign>
                    <line>2</line>
                </clef>
            </attributes>
            <note>
                <pitch>
                    <step>C</step>
                    <octave>4</octave>
                </pitch>
                <duration>2</duration>
                <type>quarter</type>
                <stem>up</stem>
            </note>
            <note>
                <chord/>
                <pitch>
                    <step>E</step>
                    <octave>4</octave>
                </pitch>
                <duration>2</duration>
                <type>quarter</type>
                <stem>up</stem>
            </note>
            <note>
                <chord/>
                <pitch>
                    <step>G</step>
                    <octave>4</octave>
                </pitch>
                <duration>2</duration>
                <type>quarter</type>
                <stem>up</stem>
            </note>
            <note>
                <pitch>
                    <step>C</step>
                    <octave>4</octave>
                </pitch>
                <duration>2</duration>
                <type>quarter</type>
                <stem>up</stem>
            </note>
            <note>
                <chord/>
                <pitch>
                    <step>E</step>
                    <octave>4</octave>
                </pitch>
                <duration>2</duration>
                <type>quarter</type>
                <stem>up</stem>
            </note>
            <note>
                <chord/>
                <pitch>
                    <step>G</step>
                    <octave>4</octave>
                </pitch>
                <duration>2</duration>
                <type>quarter</type>
                <stem>up</stem>
            </note>
            <note>
                <pitch>
                    <step>C</step>
                    <octave>4</octave>
                </pitch>
                <duration>2</duration>
                <type>quarter</type>
                <stem>up</stem>
            </note>
            <note>
                <chord/>
                <pitch>
                    <step>E</step>
                    <octave>4</octave>
                </pitch>
                <duration>2</duration>
                <type>quarter</type>
                <stem>up</stem>
            </note>
            <note>
                <chord/>
                <pitch>
                    <step>G</step>
                    <octave>4</octave>
                </pitch>
                <duration>2</duration>
                <type>quarter</type>
                <stem>up</stem>
            </note>
            <note>
                <pitch>
                    <step>C</step>
                    <octave>4</octave>
                </pitch>
                <duration>2</duration>
                <type>quarter</type>
                <stem>up</stem>
            </note>
            <note>
                <chord/>
                <pitch>
                    <step>E</step>
                    <octave>4</octave>
                </pitch>
                <duration>2</duration>
                <type>quarter</type>
                <stem>up</stem>
            </note>
            <note>
                <chord/>
                <pitch>
                    <step>G</step>
                    <octave>4</octave>
                </pitch>
                <duration>2</duration>
                <type>quarter</type>
                <stem>up</stem>
            </note>
        </measure>
        <measure number="1">
            <note>
                <pitch>
                    <step>C</step>
                    <octave>4</octave>
                </pitch>
                <duration>2</duration>
                <type>quarter</type>
                <stem>up</stem>
            </note>
            <note>
                <chord/>
                <pitch>
                    <step>E</step>
                    <octave>4</octave>
                </pitch>
                <duration>2</duration>
                <type>quarter</type>
                <stem>up</stem>
            </note>
            <note>
                <chord/>
                <pitch>
                    <step>G</step>
                    <octave>4</octave>
                </pitch>
                <duration>2</duration>
                <type>quarter</type>
                <stem>up</stem>
            </note>
            <note>
                <pitch>
                    <step>C</step>
                    <octave>4</octave>
                </pitch>
                <duration>2</duration>
                <type>quarter</type>
                <stem>up</stem>
            </note>
            <note>
                <chord/>
                <pitch>
                    <step>E</step>
                    <octave>4</octave>
                </pitch>
                <duration>2</duration>
                <type>quarter</type>
                <stem>up</stem>
            </note>
            <note>
                <chord/>
                <pitch>
                    <step>G</step>
                    <octave>4</octave>
                </pitch>
                <duration>2</duration>
                <type>quarter</type>
                <stem>up</stem>
            </note>
            <note>
                <pitch>
                    <step>C</step>
                    <octave>4</octave>
                </pitch>
                <duration>2</duration>
                <type>quarter</type>
                <stem>up</stem>
            </note>
            <note>
                <chord/>
                <pitch>
                    <step>E</step>
                    <octave>4</octave>
                </pitch>
                <duration>2</duration>
                <type>quarter</type>
                <stem>up</stem>
            </note>
            <note>
                <chord/>
                <pitch>
                    <step>G</step>
                    <octave>4</octave>
                </pitch>
                <duration>2</duration>
                <type>quarter</type>
                <stem>up</stem>
            </note>
            <note>
                <pitch>
                    <step>C</step>
                    <octave>4</octave>
                </pitch>
                <duration>2</duration>
                <type>quarter</type>
                <stem>up</stem>
            </note>
            <note>
                <chord/>
                <pitch>
                    <step>E</step>
                    <octave>4</octave>
                </pitch>
                <duration>2</duration>
                <type>quarter</type>
                <stem>up</stem>
            </note>
            <note>
                <chord/>
                <pitch>
                    <step>G</step>
                    <octave>4</octave>
                </pitch>
                <duration>2</duration>
                <type>quarter</type>
                <stem>up</stem>
            </note>
        </measure>
        <measure number="2">
            <note>
                <pitch>
                    <step>E</step>
                    <octave>4</octave>
                </pitch>
                <duration>2</duration>
                <type>quarter</type>
                <stem>up</stem>
            </note>
            <note>
                <chord/>
                <pitch>
                    <step>G</step>
                    <octave>4</octave>
                </pitch>
                <duration>2</duration>
                <type>quarter</type>
                <stem>up</stem>
            </note>
            <note>
                <chord/>
                <pitch>
                    <step>B</step>
                    <octave>4</octave>
                </pitch>
                <duration>2</duration>
                <type>quarter</type>
                <stem>up</stem>
            </note>
            <note>
                <chord/>
                <pitch>
                    <step>D</step>
                    <octave>5</octave>
                </pitch>
                <duration>2</duration>
                <type>quarter</type>
                <stem>up</stem>
            </note>
            <note>
                <pitch>
                    <step>E</step>
                    <octave>4</octave>
                </pitch>
                <duration>2</duration>
                <type>quarter</type>
                <stem>up</stem>
            </note>
            <note>
                <chord/>
                <pitch>
                    <step>G</step>
                    <octave>4</octave>
                </pitch>
                <duration>2</duration>
                <type>quarter</type>
                <stem>up</stem>
            </note>
            <note>
                <chord/>
                <pitch>
                    <step>B</step>
                    <octave>4</octave>
                </pitch>
                <duration>2</duration>
                <type>quarter</type>
                <stem>up</stem>
            </note>
            <note>
                <chord/>
                <pitch>
                    <step>D</step>
                    <octave>5</octave>
                </pitch>
                <duration>2</duration>
                <type>quarter</type>
                <stem>up</stem>
            </note>
            <note>
                <pitch>
                    <step>E</step>
                    <octave>4</octave>
                </pitch>
                <duration>2</duration>
                <type>quarter</type>
                <stem>up</stem>
            </note>
            <note>
                <chord/>
                <pitch>
                    <step>G</step>
                    <octave>4</octave>
                </pitch>
                <duration>2</duration>
                <type>quarter</type>
                <stem>up</stem>
            </note>
            <note>
                <chord/>
                <pitch>
                    <step>B</step>
                    <octave>4</octave>
                </pitch>
                <duration>2</duration>
                <type>quarter</type>
                <stem>up</stem>
            </note>
            <note>
                <chord/>
                <pitch>
                    <step>D</step>
                    <octave>5</octave>
                </pitch>
                <duration>2</duration>
                <type>quarter</type>
                <stem>up</stem>
            </note>
            <note>
                <pitch>
                    <step>E</step>
                    <octave>4</octave>
                </pitch>
                <duration>2</duration>
                <type>quarter</type>
                <stem>up</stem>
            </note>
            <note>
                <chord/>
                <pitch>
                    <step>G</step>
                    <octave>4</octave>
                </pitch>
                <duration>2</duration>
                <type>quarter</type>
                <stem>up</stem>
            </note>
            <note>
                <chord/>
                <pitch>
                    <step>B</step>
                    <octave>4</octave>
                </pitch>
                <duration>2</duration>
                <type>quarter</type>
                <stem>up</stem>
            </note>
            <note>
                <chord/>
                <pitch>
                    <step>D</step>
                    <octave>5</octave>
                </pitch>
                <duration>2</duration>
                <type>quarter</type>
                <stem>up</stem>
            </note>
        </measure>
        <measure number="3">
            <note>
                <pitch>
                    <step>F</step>
                    <octave>4</octave>
                </pitch>
                <duration>2</duration>
                <type>quarter</type>
                <stem>up</stem>
            </note>
            <note>
                <chord/>
                <pitch>
                    <step>A</step>
                    <octave>4</octave>
                </pitch>
                <duration>2</duration>
                <type>quarter</type>
                <stem>up</stem>
            </note>
            <note>
                <chord/>
                <pitch>
                    <step>C</step>
                    <octave>5</octave>
                </pitch>
                <duration>2</duration>
                <type>quarter</type>
                <stem>up</stem>
            </note>
            <note>
                <pitch>
                    <step>F</step>
                    <octave>4</octave>
                </pitch>
                <duration>2</duration>
                <type>quarter</type>
                <stem>up</stem>
            </note>
            <note>
                <chord/>
                <pitch>
                    <step>A</step>
                    <octave>4</octave>
                </pitch>
                <duration>2</duration>
                <type>quarter</type>
                <stem>up</stem>
            </note>
            <note>
                <chord/>
                <pitch>
                    <step>C</step>
                    <octave>5</octave>
                </pitch>
                <duration>2</duration>
                <type>quarter</type>
                <stem>up</stem>
            </note>
            <note>
                <pitch>
                    <step>C</step>
                    <octave>4</octave>
                </pitch>
                <duration>2</duration>
                <type>quarter</type>
                <stem>up</stem>
            </note>
            <note>
                <chord/>
                <pitch>
                    <step>E</step>
                    <octave>4</octave>
                </pitch>
                <duration>2</duration>
                <type>quarter</type>
                <stem>up</stem>
            </note>
            <note>
                <chord/>
                <pitch>
                    <step>G</step>
                    <octave>4</octave>
                </pitch>
                <duration>2</duration>
                <type>quarter</type>
                <stem>up</stem>
            </note>
            <note>
                <pitch>
                    <step>C</step>
                    <octave>4</octave>
                </pitch>
                <duration>2</duration>
                <type>quarter</type>
                <stem>up</stem>
            </note>
            <note>
                <chord/>
                <pitch>
                    <step>E</step>
                    <octave>4</octave>
                </pitch>
                <duration>2</duration>
                <type>quarter</type>
                <stem>up</stem>
            </note>
            <note>
                <chord/>
                <pitch>
                    <step>G</step>
                    <octave>4</octave>
                </pitch>
                <duration>2</duration>
                <type>quarter</type>
                <stem>up</stem>
            </note>
        </measure>
        <measure number="4">
            <note>
                <pitch>
                    <step>C</step>
                    <octave>4</octave>
                </pitch>
                <duration>2</duration>
                <type>quarter</type>
                <stem>up</stem>
            </note>
            <note>
                <chord/>
                <pitch>
                    <step>E</step>
                    <octave>4</octave>
                </pitch>
                <duration>2</duration>
                <type>quarter</type>
                <stem>up</stem>
            </note>
            <note>
                <chord/>
                <pitch>
                    <step>G</step>
                    <octave>4</octave>
                </pitch>
                <duration>2</duration>
                <type>quarter</type>
                <stem>up</stem>
            </note>
            <note>
                <pitch>
                    <step>C</step>
                    <octave>4</octave>
                </pitch>
                <duration>1</duration>
                <type>eighth</type>
                <stem>up</stem>
            </note>
            <note>
                <chord/>
                <pitch>
                    <step>E</step>
                    <octave>4</octave>
                </pitch>
                <duration>1</duration>
                <type>eighth</type>
                <stem>up</stem>
            </note>
            <note>
                <chord/>
                <pitch>
                    <step>G</step>
                    <octave>4</octave>
                </pitch>
                <duration>1</duration>
                <type>eighth</type>
                <stem>up</stem>
            </note>
            <note>
                <pitch>
                    <step>C</step>
                    <octave>4</octave>
                </pitch>
                <duration>2</duration>
                <type>quarter</type>
                <stem>up</stem>
            </note>
            <note>
                <chord/>
                <pitch>
                    <step>E</step>
                    <octave>4</octave>
                </pitch>
                <duration>2</duration>
                <type>quarter</type>
                <stem>up</stem>
            </note>
            <note>
                <chord/>
                <pitch>
                    <step>G</step>
                    <octave>4</octave>
                </pitch>
                <duration>2</duration>
                <type>quarter</type>
                <stem>up</stem>
            </note>
            <note>
                <pitch>
                    <step>C</step>
                    <octave>4</octave>
                </pitch>
                <duration>1</duration>
                <type>eighth</type>
                <stem>up</stem>
            </note>
            <note>
                <chord/>
                <pitch>
                    <step>E</step>
                    <octave>4</octave>
                </pitch>
                <duration>1</duration>
                <type>eighth</type>
                <stem>up</stem>
            </note>
            <note>
                <chord/>
                <pitch>
                    <step>G</step>
                    <octave>4</octave>
                </pitch>
                <duration>1</duration>
                <type>eighth</type>
                <stem>up</stem>
            </note>
            <note>
                <pitch>
                    <step>C</step>
                    <octave>4</octave>
                </pitch>
                <duration>2</duration>
                <type>quarter</type>
                <stem>up</stem>
            </note>
            <note>
                <chord/>
                <pitch>
                    <step>E</step>
                    <octave>4</octave>
                </pitch>
                <duration>2</duration>
                <type>quarter</type>
                <stem>up</stem>
            </note>
            <note>
                <chord/>
                <pitch>
                    <step>G</step>
                    <octave>4</octave>
                </pitch>
                <duration>2</duration>
                <type>quarter</type>
                <stem>up</stem>
            </note>
        </measure>
        <measure number="5">
            <note>
                <pitch>
                    <step>C</step>
                    <octave>4</octave>
                </pitch>
                <duration>2</duration>
                <type>quarter</type>
                <stem>up</stem>
            </note>
            <note>
                <chord/>
                <pitch>
                    <step>E</step>
                    <octave>4</octave>
                </pitch>
                <duration>2</duration>
                <type>quarter</type>
                <stem>up</stem>
            </note>
            <note>
                <chord/>
                <pitch>
                    <step>G</step>
                    <octave>4</octave>
                </pitch>
                <duration>2</duration>
                <type>quarter</type>
                <stem>up</stem>
            </note>
            <note>
                <pitch>
                    <step>C</step>
                    <octave>4</octave>
                </pitch>
                <duration>1</duration>
                <type>eighth</type>
                <stem>up</stem>
            </note>
            <note>
                <chord/>
                <pitch>
                    <step>E</step>
                    <octave>4</octave>
                </pitch>
                <duration>1</duration>
                <type>eighth</type>
                <stem>up</stem>
            </note>
            <note>
                <chord/>
                <pitch>
                    <step>G</step>
                    <octave>4</octave>
                </pitch>
                <duration>1</duration>
                <type>eighth</type>
                <stem>up</stem>
            </note>
            <note>
                <pitch>
                    <step>C</step>
                    <octave>4</octave>
                </pitch>
                <duration>2</duration>
                <type>quarter</type>
                <stem>up</stem>
            </note>
            <note>
                <chord/>
                <pitch>
                    <step>E</step>
                    <octave>4</octave>
                </pitch>
                <duration>2</duration>
                <type>quarter</type>
                <stem>up</stem>
            </note>
            <note>
                <chord/>
                <pitch>
                    <step>G</step>
                    <octave>4</octave>
                </pitch>
                <duration>2</duration>
                <type>quarter</type>
                <stem>up</stem>
            </note>
            <note>
                <pitch>
                    <step>C</step>
                    <octave>4</octave>
                </pitch>
                <duration>1</duration>
                <type>eighth</type>
                <stem>up</stem>
            </note>
            <note>
                <chord/>
                <pitch>
                    <step>E</step>
                    <octave>4</octave>
                </pitch>
                <duration>1</duration>
                <type>eighth</type>
                <stem>up</stem>
            </note>
            <note>
                <chord/>
                <pitch>
                    <step>G</step>
                    <octave>4</octave>
                </pitch>
                <duration>1</duration>
                <type>eighth</type>
                <stem>up</stem>
            </note>
            <note>
                <pitch>
                    <step>G</step>
                    <octave>4</octave>
                </pitch>
                <duration>2</duration>
                <type>quarter</type>
                <stem>up</stem>
            </note>
            <note>
                <chord/>
                <pitch>
                    <step>B</step>
                    <octave>4</octave>
                </pitch>
                <duration>2</duration>
                <type>quarter</type>
                <stem>up</stem>
            </note>
            <note>
                <chord/>
                <pitch>
                    <step>D</step>
                    <octave>5</octave>
                </pitch>
                <duration>2</duration>
                <type>quarter</type>
                <stem>up</stem>
            </note>
            <note>
                <chord/>
                <pitch>
                    <step>F</step>
                    <octave>5</octave>
                </pitch>
                <duration>2</duration>
                <type>quarter</type>
                <stem>up</stem>
            </note>
        </measure>
        <measure number="6">
            <note>
                <pitch>
                    <step>C</step>
                    <octave>4</octave>
                </pitch>
                <duration>2</duration>
                <type>quarter</type>
                <stem>up</stem>
            </note>
            <note>
                <chord/>
                <pitch>
                    <step>E</step>
                    <octave>4</octave>
                </pitch>
                <duration>2</duration>
                <type>quarter</type>
                <stem>up</stem>
            </note>
            <note>
                <chord/>
                <pitch>
                    <step>G</step>
                    <octave>4</octave>
                </pitch>
                <duration>2</duration>
                <type>quarter</type>
                <stem>up</stem>
            </note>
            <note>
                <pitch>
                    <step>C</step>
                    <octave>4</octave>
                </pitch>
                <duration>1</duration>
                <type>eighth</type>
                <stem>up</stem>
            </note>
            <note>
                <chord/>
                <pitch>
                    <step>E</step>
                    <octave>4</octave>
                </pitch>
                <duration>1</duration>
                <type>eighth</type>
                <stem>up</stem>
            </note>
            <note>
                <chord/>
                <pitch>
                    <step>G</step>
                    <octave>4</octave>
                </pitch>
                <duration>1</duration>
                <type>eighth</type>
                <stem>up</stem>
            </note>
            <note>
                <pitch>
                    <step>C</step>
                    <octave>4</octave>
                </pitch>
                <duration>2</duration>
                <type>quarter</type>
                <stem>up</stem>
            </note>
            <note>
                <chord/>
                <pitch>
                    <step>E</step>
                    <octave>4</octave>
                </pitch>
                <duration>2</duration>
                <type>quarter</type>
                <stem>up</stem>
            </note>
            <note>
                <chord/>
                <pitch>
                    <step>G</step>
                    <octave>4</octave>
                </pitch>
                <duration>2</duration>
                <type>quarter</type>
                <stem>up</stem>
            </note>
            <note>
                <pitch>
                    <step>C</step>
                    <octave>4</octave>
                </pitch>
                <duration>1</duration>
                <type>eighth</type>
                <stem>up</stem>
            </note>
            <note>
                <chord/>
                <pitch>
                    <step>E</step>
                    <octave>4</octave>
                </pitch>
                <duration>1</duration>
                <type>eighth</type>
                <stem>up</stem>
            </note>
            <note>
                <chord/>
                <pitch>
                    <step>G</step>
                    <octave>4</octave>
                </pitch>
                <duration>1</duration>
                <type>eighth</type>
                <stem>up</stem>
            </note>
            <note>
                <pitch>
                    <step>C</step>
                    <octave>4</octave>
                </pitch>
                <duration>2</duration>
                <type>quarter</type>
                <stem>up</stem>
            </note>
            <note>
                <chord/>
                <pitch>
                    <step>E</step>
                    <octave>4</octave>
                </pitch>
                <duration>2</duration>
                <type>quarter</type>
                <stem>up</stem>
            </note>
            <note>
                <chord/>
                <pitch>
                    <step>G</step>
                    <octave>4</octave>
                </pitch>
                <duration>2</duration>
                <type>quarter</type>
                <stem>up</stem>
            </note>
        </measure>
        <measure number="7">
            <note>
                <pitch>
                    <step>C</step>
                    <octave>4</octave>
                </pitch>
                <duration>2</duration>
                <type>quarter</type>
                <stem>up</stem>
            </note>
            <note>
                <chord/>
                <pitch>
                    <step>E</step>
                    <octave>4</octave>
                </pitch>
                <duration>2</duration>
                <type>quarter</type>
                <stem>up</stem>
            </note>
            <note>
                <chord/>
                <pitch>
                    <step>G</step>
                    <octave>4</octave>
                </pitch>
                <duration>2</duration>
                <type>quarter</type>
                <stem>up</stem>
            </note>
            <note>
                <pitch>
                    <step>C</step>
                    <octave>4</octave>
                </pitch>
                <duration>1</duration>
                <type>eighth</type>
                <stem>up</stem>
            </note>
            <note>
                <chord/>
                <pitch>
                    <step>E</step>
                    <octave>4</octave>
                </pitch>
                <duration>1</duration>
                <type>eighth</type>
                <stem>up</stem>
            </note>
            <note>
                <chord/>
                <pitch>
                    <step>G</step>
                    <octave>4</octave>
                </pitch>
                <duration>1</duration>
                <type>eighth</type>
                <stem>up</stem>
            </note>
            <note>
                <pitch>
                    <step>C</step>
                    <octave>4</octave>
                </pitch>
                <duration>2</duration>
                <type>quarter</type>
                <stem>up</stem>
            </note>
            <note>
                <chord/>
                <pitch>
                    <step>E</step>
                    <octave>4</octave>
                </pitch>
                <duration>2</duration>
                <type>quarter</type>
                <stem>up</stem>
            </note>
            <note>
                <chord/>
                <pitch>
                    <step>G</step>
                    <octave>4</octave>
                </pitch>
                <duration>2</duration>
                <type>quarter</type>
                <stem>up</stem>
            </note>
            <note>
                <pitch>
                    <step>C</step>
                    <octave>4</octave>
                </pitch>
                <duration>1</duration>
                <type>eighth</type>
                <stem>up</stem>
            </note>
            <note>
                <chord/>
                <pitch>
                    <step>E</step>
                    <octave>4</octave>
                </pitch>
                <duration>1</duration>
                <type>eighth</type>
                <stem>up</stem>
            </note>
            <note>
                <chord/>
                <pitch>
                    <step>G</step>
                    <octave>4</octave>
                </pitch>
                <duration>1</duration>
                <type>eighth</type>
                <stem>up</stem>
            </note>
            <note>
                <pitch>
                    <step>G</step>
                    <octave>4</octave>
                </pitch>
                <duration>2</duration>
                <type>quarter</type>
                <stem>up</stem>
            </note>
            <note>
                <chord/>
                <pitch>
                    <step>B</step>
                    <octave>4</octave>
                </pitch>
                <duration>2</duration>
                <type>quarter</type>
                <stem>up</stem>
            </note>
            <note>
                <chord/>
                <pitch>
                    <step>D</step>
                    <octave>5</octave>
                </pitch>
                <duration>2</duration>
                <type>quarter</type>
                <stem>up</stem>
            </note>
            <note>
                <chord/>
                <pitch>
                    <step>F</step>
                    <octave>5</octave>
                </pitch>
                <duration>2</duration>
                <type>quarter</type>
                <stem>up</stem>
            </note>
        </measure>
        <measure number="8">
            <note>
                <pitch>
                    <step>C</step>
                    <octave>4</octave>
                </pitch>
                <duration>2</duration>
                <type>quarter</type>
                <stem>up</stem>
            </note>
            <note>
                <chord/>
                <pitch>
                    <step>E</step>
                    <octave>4</octave>
                </pitch>
                <duration>2</duration>
                <type>quarter</type>
                <stem>up</stem>
            </note>
            <note>
                <chord/>
                <pitch>
                    <step>G</step>
                    <octave>4</octave>
                </pitch>
                <duration>2</duration>
                <type>quarter</type>
                <stem>up</stem>
            </note>
            <note>
                <pitch>
                    <step>C</step>
                    <octave>4</octave>
                </pitch>
                <duration>1</duration>
                <type>eighth</type>
                <stem>up</stem>
            </note>
            <note>
                <chord/>
                <pitch>
                    <step>E</step>
                    <octave>4</octave>
                </pitch>
                <duration>1</duration>
                <type>eighth</type>
                <stem>up</stem>
            </note>
            <note>
                <chord/>
                <pitch>
                    <step>G</step>
                    <octave>4</octave>
                </pitch>
                <duration>1</duration>
                <type>eighth</type>
                <stem>up</stem>
            </note>
            <note>
                <pitch>
                    <step>C</step>
                    <octave>4</octave>
                </pitch>
                <duration>2</duration>
                <type>quarter</type>
                <stem>up</stem>
            </note>
            <note>
                <chord/>
                <pitch>
                    <step>E</step>
                    <octave>4</octave>
                </pitch>
                <duration>2</duration>
                <type>quarter</type>
                <stem>up</stem>
            </note>
            <note>
                <chord/>
                <pitch>
                    <step>G</step>
                    <octave>4</octave>
                </pitch>
                <duration>2</duration>
                <type>quarter</type>
                <stem>up</stem>
            </note>
            <note>
                <pitch>
                    <step>C</step>
                    <octave>4</octave>
                </pitch>
                <duration>1</duration>
                <type>eighth</type>
                <stem>up</stem>
            </note>
            <note>
                <chord/>
                <pitch>
                    <step>E</step>
                    <octave>4</octave>
                </pitch>
                <duration>1</duration>
                <type>eighth</type>
                <stem>up</stem>
            </note>
            <note>
                <chord/>
                <pitch>
                    <step>G</step>
                    <octave>4</octave>
                </pitch>
                <duration>1</duration>
                <type>eighth</type>
                <stem>up</stem>
            </note>
            <note>
                <pitch>
                    <step>C</step>
                    <octave>4</octave>
                </pitch>
                <duration>2</duration>
                <type>quarter</type>
                <stem>up</stem>
            </note>
            <note>
                <chord/>
                <pitch>
                    <step>E</step>
                    <octave>4</octave>
                </pitch>
                <duration>2</duration>
                <type>quarter</type>
                <stem>up</stem>
            </note>
            <note>
                <chord/>
                <pitch>
                    <step>G</step>
                    <octave>4</octave>
                </pitch>
                <duration>2</duration>
                <type>quarter</type>
                <stem>up</stem>
            </note>
        </measure>
        <measure number="9">
            <note>
                <pitch>
                    <step>C</step>
                    <octave>4</octave>
                </pitch>
                <duration>2</duration>
                <type>quarter</type>
                <stem>up</stem>
            </note>
            <note>
                <chord/>
                <pitch>
                    <step>E</step>
                    <octave>4</octave>
                </pitch>
                <duration>2</duration>
                <type>quarter</type>
                <stem>up</stem>
            </note>
            <note>
                <chord/>
                <pitch>
                    <step>G</step>
                    <octave>4</octave>
                </pitch>
                <duration>2</duration>
                <type>quarter</type>
                <stem>up</stem>
            </note>
            <note>
                <pitch>
                    <step>C</step>
                    <octave>4</octave>
                </pitch>
                <duration>1</duration>
                <type>eighth</type>
                <stem>up</stem>
            </note>
            <note>
                <chord/>
                <pitch>
                    <step>E</step>
                    <octave>4</octave>
                </pitch>
                <duration>1</duration>
                <type>eighth</type>
                <stem>up</stem>
            </note>
            <note>
                <chord/>
                <pitch>
                    <step>G</step>
                    <octave>4</octave>
                </pitch>
                <duration>1</duration>
                <type>eighth</type>
                <stem>up</stem>
            </note>
            <note>
                <pitch>
                    <step>C</step>
                    <octave>4</octave>
                </pitch>
                <duration>2</duration>
                <type>quarter</type>
                <stem>up</stem>
            </note>
            <note>
                <chord/>
                <pitch>
                    <step>E</step>
                    <octave>4</octave>
                </pitch>
                <duration>2</duration>
                <type>quarter</type>
                <stem>up</stem>
            </note>
            <note>
                <chord/>
                <pitch>
                    <step>G</step>
                    <octave>4</octave>
                </pitch>
                <duration>2</duration>
                <type>quarter</type>
                <stem>up</stem>
            </note>
            <note>
                <pitch>
                    <step>C</step>
                    <octave>4</octave>
                </pitch>
                <duration>1</duration>
                <type>eighth</type>
                <stem>up</stem>
            </note>
            <note>
                <chord/>
                <pitch>
                    <step>E</step>
                    <octave>4</octave>
                </pitch>
                <duration>1</duration>
                <type>eighth</type>
                <stem>up</stem>
            </note>
            <note>
                <chord/>
                <pitch>
                    <step>G</step>
                    <octave>4</octave>
                </pitch>
                <duration>1</duration>
                <type>eighth</type>
                <stem>up</stem>
            </note>
            <note>
                <pitch>
                    <step>C</step>
                    <octave>4</octave>
                </pitch>
                <duration>2</duration>
                <type>quarter</type>
                <stem>up</stem>
            </note>
            <note>
                <chord/>
                <pitch>
                    <step>E</step>
                    <octave>4</octave>
                </pitch>
                <duration>2</duration>
                <type>quarter</type>
                <stem>up</stem>
            </note>
            <note>
                <chord/>
                <pitch>
                    <step>G</step>
                    <octave>4</octave>
                </pitch>
                <duration>2</duration>
                <type>quarter</type>
                <stem>up</stem>
            </note>
        </measure>
        <measure number="10">
            <note>
                <pitch>
                    <step>E</step>
                    <octave>4</octave>
                </pitch>
                <duration>2</duration>
                <type>quarter</type>
                <stem>up</stem>
            </note>
            <note>
                <chord/>
                <pitch>
                    <step>G</step>
                    <octave>4</octave>
                </pitch>
                <duration>2</duration>
                <type>quarter</type>
                <stem>up</stem>
            </note>
            <note>
                <chord/>
                <pitch>
                    <step>B</step>
                    <octave>4</octave>
                </pitch>
                <duration>2</duration>
                <type>quarter</type>
                <stem>up</stem>
            </note>
            <note>
                <chord/>
                <pitch>
                    <step>D</step>
                    <octave>5</octave>
                </pitch>
                <duration>2</duration>
                <type>quarter</type>
                <stem>up</stem>
            </note>
            <note>
                <pitch>
                    <step>E</step>
                    <octave>4</octave>
                </pitch>
                <duration>1</duration>
                <type>eighth</type>
                <stem>up</stem>
            </note>
            <note>
                <chord/>
                <pitch>
                    <step>G</step>
                    <octave>4</octave>
                </pitch>
                <duration>1</duration>
                <type>eighth</type>
                <stem>up</stem>
            </note>
            <note>
                <chord/>
                <pitch>
                    <step>B</step>
                    <octave>4</octave>
                </pitch>
                <duration>1</duration>
                <type>eighth</type>
                <stem>up</stem>
            </note>
            <note>
                <chord/>
                <pitch>
                    <step>D</step>
                    <octave>5</octave>
                </pitch>
                <duration>1</duration>
                <type>eighth</type>
                <stem>up</stem>
            </note>
            <note>
                <pitch>
                    <step>E</step>
                    <octave>4</octave>
                </pitch>
                <duration>2</duration>
                <type>quarter</type>
                <stem>up</stem>
            </note>
            <note>
                <chord/>
                <pitch>
                    <step>G</step>
                    <octave>4</octave>
                </pitch>
                <duration>2</duration>
                <type>quarter</type>
                <stem>up</stem>
            </note>
            <note>
                <chord/>
                <pitch>
                    <step>B</step>
                    <octave>4</octave>
                </pitch>
                <duration>2</duration>
                <type>quarter</type>
                <stem>up</stem>
            </note>
            <note>
                <chord/>
                <pitch>
                    <step>D</step>
                    <octave>5</octave>
                </pitch>
                <duration>2</duration>
                <type>quarter</type>
                <stem>up</stem>
            </note>
            <note>
                <pitch>
                    <step>E</step>
                    <octave>4</octave>
                </pitch>
                <duration>1</duration>
                <type>eighth</type>
                <stem>up</stem>
            </note>
            <note>
                <chord/>
                <pitch>
                    <step>G</step>
                    <octave>4</octave>
                </pitch>
                <duration>1</duration>
                <type>eighth</type>
                <stem>up</stem>
            </note>
            <note>
                <chord/>
                <pitch>
                    <step>B</step>
                    <octave>4</octave>
                </pitch>
                <duration>1</duration>
                <type>eighth</type>
                <stem>up</stem>
            </note>
            <note>
                <chord/>
                <pitch>
                    <step>D</step>
                    <octave>5</octave>
                </pitch>
                <duration>1</duration>
                <type>eighth</type>
                <stem>up</stem>
            </note>
            <note>
                <pitch>
                    <step>E</step>
                    <octave>4</octave>
                </pitch>
                <duration>2</duration>
                <type>quarter</type>
                <stem>up</stem>
            </note>
            <note>
                <chord/>
                <pitch>
                    <step>G</step>
                    <octave>4</octave>
                </pitch>
                <duration>2</duration>
                <type>quarter</type>
                <stem>up</stem>
            </note>
            <note>
                <chord/>
                <pitch>
                    <step>B</step>
                    <octave>4</octave>
                </pitch>
                <duration>2</duration>
                <type>quarter</type>
                <stem>up</stem>
            </note>
            <note>
                <chord/>
                <pitch>
                    <step>D</step>
                    <octave>5</octave>
                </pitch>
                <duration>2</duration>
                <type>quarter</type>
                <stem>up</stem>
            </note>
        </measure>
        <measure number="11">
            <note>
                <pitch>
                    <step>F</step>
                    <octave>4</octave>
                </pitch>
                <duration>2</duration>
                <type>quarter</type>
                <stem>up</stem>
            </note>
            <note>
                <chord/>
                <pitch>
                    <step>A</step>
                    <octave>4</octave>
                </pitch>
                <duration>2</duration>
                <type>quarter</type>
                <stem>up</stem>
            </note>
            <note>
                <chord/>
                <pitch>
                    <step>C</step>
                    <octave>5</octave>
                </pitch>
                <duration>2</duration>
                <type>quarter</type>
                <stem>up</stem>
            </note>
            <note>
                <pitch>
                    <step>F</step>
                    <octave>4</octave>
                </pitch>
                <duration>2</duration>
                <type>quarter</type>
                <stem>up</stem>
            </note>
            <note>
                <chord/>
                <pitch>
                    <step>A</step>
                    <octave>4</octave>
                </pitch>
                <duration>2</duration>
                <type>quarter</type>
                <stem>up</stem>
            </note>
            <note>
                <chord/>
                <pitch>
                    <step>C</step>
                    <octave>5</octave>
                </pitch>
                <duration>2</duration>
                <type>quarter</type>
                <stem>up</stem>
            </note>
            <note>
                <pitch>
                    <step>C</step>
                    <octave>4</octave>
                </pitch>
                <duration>4</duration>
                <type>half</type>
                <stem>up</stem>
            </note>
            <note>
                <chord/>
                <pitch>
                    <step>E</step>
                    <octave>4</octave>
                </pitch>
                <duration>4</duration>
                <type>half</type>
                <stem>up</stem>
            </note>
            <note>
                <chord/>
                <pitch>
                    <step>G</step>
                    <octave>4</octave>
                </pitch>
                <duration>4</duration>
                <type>half</type>
                <stem>up</stem>
            </note>
<barline location="right">
                <bar-style>light-heavy</bar-style>
            </barline>
        </measure>
    </part>
    <part id="P3">
        <measure number="0">
            <attributes>
                <divisions>2</divisions>
                <key>
                    <fifths>0</fifths>
                    <mode>major</mode>
                </key>
                <time>
                    <beats>4</beats>
                    <beat-type>4</beat-type>
                </time>
                <clef>
                    <sign>F</sign>
                    <line>4</line>
                </clef>
            </attributes>
            <note>
                <pitch>
                    <step>C</step>
                    <octave>3</octave>
                </pitch>
                <duration>1</duration>
                <type>eighth</type>
                <stem>up</stem>
            </note>
            <note>
                <pitch>
                    <step>C</step>
                    <octave>3</octave>
                </pitch>
                <duration>2</duration>
                <type>quarter</type>
                <stem>up</stem>
            </note>
            <note>
                <pitch>
                    <step>C</step>
                    <octave>3</octave>
                </pitch>
                <duration>2</duration>
                <type>quarter</type>
                <stem>up</stem>
            </note>
            <note>
                <pitch>
                    <step>C</step>
                    <octave>3</octave>
                </pitch>
                <duration>2</duration>
                <type>quarter</type>
                <stem>up</stem>
            </note>
            <note>
                <pitch>
                    <step>C</step>
                    <octave>3</octave>
                </pitch>
                <duration>1</duration>
                <type>eighth</type>
                <stem>up</stem>
            </note>
        </measure>
        <measure number="1">
            <note>
                <pitch>
                    <step>C</step>
                    <octave>3</octave>
                </pitch>
                <duration>1</duration>
                <type>eighth</type>
                <stem>up</stem>
            </note>
            <note>
                <pitch>
                    <step>C</step>
                    <octave>3</octave>
                </pitch>
                <duration>2</duration>
                <type>quarter</type>
                <stem>up</stem>
            </note>
            <note>
                <pitch>
                    <step>C</step>
                    <octave>3</octave>
                </pitch>
                <duration>2</duration>
                <type>quarter</type>
                <stem>up</stem>
            </note>
            <note>
                <pitch>
                    <step>C</step>
                    <octave>3</octave>
                </pitch>
                <duration>2</duration>
                <type>quarter</type>
                <stem>up</stem>
            </note>
            <note>
                <pitch>
                    <step>C</step>
                    <octave>3</octave>
                </pitch>
                <duration>1</duration>
                <type>eighth</type>
                <stem>up</stem>
            </note>
        </measure>
        <measure number="2">
            <note>
                <pitch>
                    <step>E</step>
                    <octave>3</octave>
                </pitch>
                <duration>1</duration>
                <type>eighth</type>
                <stem>up</stem>
            </note>
            <note>
                <pitch>
                    <step>E</step>
                    <octave>3</octave>
                </pitch>
                <duration>2</duration>
                <type>quarter</type>
                <stem>up</stem>
            </note>
            <note>
                <pitch>
                    <step>E</step>
                    <octave>3</octave>
                </pitch>
                <duration>2</duration>
                <type>quarter</type>
                <stem>up</stem>
            </note>
            <note>
                <pitch>
                    <step>E</step>
                    <octave>3</octave>
                </pitch>
                <duration>2</duration>
                <type>quarter</type>
                <stem>up</stem>
            </note>
            <note>
                <pitch>
                    <step>E</step>
                    <octave>3</octave>
                </pitch>
                <duration>1</duration>
                <type>eighth</type>
                <stem>up</stem>
            </note>
        </measure>
        <measure number="3">
            <note>
                <pitch>
                    <step>F</step>
                    <octave>3</octave>
                </pitch>
                <duration>1</duration>
                <type>eighth</type>
                <stem>up</stem>
            </note>
            <note>
                <pitch>
                    <step>F</step>
                    <octave>3</octave>
                </pitch>
                <duration>2</duration>
                <type>quarter</type>
                <stem>up</stem>
            </note>
            <note>
                <pitch>
                    <step>F</step>
                    <octave>3</octave>
                </pitch>
                <duration>2</duration>
                <type>quarter</type>
                <stem>up</stem>
            </note>
            <note>
                <pitch>
                    <step>C</step>
                    <octave>3</octave>
                </pitch>
                <duration>2</duration>
                <type>quarter</type>
                <stem>up</stem>
            </note>
            <note>
                <pitch>
                    <step>C</step>
                    <octave>3</octave>
                </pitch>
                <duration>1</duration>
                <type>eighth</type>
                <stem>up</stem>
            </note>
        </measure>
        <measure number="4">
            <note>
                <pitch>
                    <step>C</step>
                    <octave>3</octave>
                </pitch>
                <duration>8</duration>
                <type>whole</type>
                <stem>up</stem>
            </note>
        </measure>
        <measure number="5">
            <note>
                <pitch>
                    <step>C</step>
                    <octave>3</octave>
                </pitch>
                <duration>8</duration>
                <type>whole</type>
                <stem>up</stem>
            </note>
        </measure>
        <measure number="6">
            <note>
                <pitch>
                    <step>C</step>
                    <octave>3</octave>
                </pitch>
                <duration>8</duration>
                <type>whole</type>
                <stem>up</stem>
            </note>
        </measure>
        <measure number="7">
            <note>
                <pitch>
                    <step>C</step>
                    <octave>3</octave>
                </pitch>
                <duration>8</duration>
                <type>whole</type>
                <stem>up</stem>
            </note>
        </measure>
        <measure number="8">
            <note>
                <pitch>
                    <step>C</step>
                    <octave>3</octave>
                </pitch>
                <duration>8</duration>
                <type>whole</type>
                <stem>up</stem>
            </note>
        </measure>
        <measure number="9">
            <note>
                <pitch>
                    <step>C</step>
                    <octave>3</octave>
                </pitch>
                <duration>8</duration>
                <type>whole</type>
                <stem>up</stem>
            </note>
        </measure>
        <measure number="10">
            <note>
                <pitch>
                    <step>E</step>
                    <octave>3</octave>
                </pitch>
                <duration>8</duration>
                <type>whole</type>
                <stem>up</stem>
            </note>
        </measure>
        <measure number="11">
            <note>
                <pitch>
                    <step>F</step>
                    <octave>3</octave>
                </pitch>
                <duration>3</duration>
                <type>quarter</type>
                <dot/>
                <stem>up</stem>
            </note>
            <note>
                <pitch>
                    <step>F</step>
                    <octave>3</octave>
                </pitch>
                <duration>1</duration>
                <type>eighth</type>
                <stem>up</stem>
            </note>
            <note>
                <pitch>
                    <step>C</step>
                    <octave>3</octave>
                </pitch>
                <duration>4</duration>
                <type>half</type>
                <stem>up</stem>
            </note>
<barline location="right">
                <bar-style>light-heavy</bar-style>
            </barline>
        </measure>
    </part>
</score-partwise>